<svg width="250" height="160" viewBox="0 0 250 160" fill="none" xmlns="http://www.w3.org/2000/svg">
<path d="M258.379 -0.375003H-9.02105V160.714H258.379V-0.375003Z" fill="black"/>
<path d="M-9.02104 160.713H258.379V-0.376004H-9.02104V160.713Z" fill="white"/>
<path d="M260.253 156.624C259.062 158.188 257.897 159.774 256.757 161.38C257.707 159.655 258.686 157.943 259.694 156.247L260.253 156.624Z" fill="black"/>
<path d="M260.168 149.236C257.076 153.151 254.154 157.207 251.403 161.38C253.964 157.087 256.705 152.896 259.63 148.83L260.168 149.236Z" fill="black"/>
<path d="M260.115 142.556C255.007 148.491 250.314 154.793 246.05 161.379C250.124 154.674 254.642 148.227 259.598 142.124L260.115 142.556Z" fill="black"/>
<path d="M260.142 136.422C256.526 140.263 253.09 144.277 249.847 148.444C246.604 152.611 243.554 156.932 240.696 161.378C243.459 156.872 246.419 152.483 249.579 148.24C252.739 143.996 256.099 139.898 259.646 135.965L260.141 136.422H260.142Z" fill="black"/>
<path d="M260.094 130.914C255.403 135.485 250.976 140.332 246.846 145.424C242.715 150.515 238.88 155.85 235.343 161.378C238.785 155.791 242.531 150.385 246.583 145.214C250.633 140.042 254.99 135.105 259.62 130.435L260.094 130.914Z" fill="black"/>
<path d="M259.986 125.92C254.216 131.105 248.792 136.681 243.782 142.613C238.769 148.543 234.171 154.826 229.989 161.378C234.076 154.767 238.587 148.412 243.523 142.398C248.457 136.382 253.815 130.71 259.532 125.422L259.986 125.92Z" fill="black"/>
<path d="M260.106 121.122C253.2 126.848 246.722 133.097 240.789 139.838C234.853 146.575 229.466 153.797 224.636 161.377C229.37 153.737 234.671 146.441 240.535 139.617C246.394 132.789 252.813 126.44 259.673 120.606L260.106 121.122Z" fill="black"/>
<path d="M259.989 116.873C255.993 119.957 252.118 123.2 248.391 126.607C244.664 130.014 241.085 133.585 237.675 137.311C234.264 141.037 231.021 144.919 227.956 148.938C224.89 152.956 222 157.11 219.284 161.376C221.953 157.08 224.797 152.892 227.821 148.836C230.845 144.78 234.049 140.856 237.425 137.085C240.801 133.313 244.348 129.693 248.048 126.235C251.748 122.776 255.599 119.48 259.575 116.34L259.989 116.872V116.873Z" fill="black"/>
<path d="M259.909 112.887C255.366 116.161 250.958 119.623 246.722 123.287C242.486 126.951 238.423 130.817 234.563 134.878C230.702 138.939 227.045 143.195 223.605 147.621C220.164 152.047 216.941 156.643 213.929 161.375C216.893 156.613 220.072 151.983 223.471 147.518C226.87 143.053 230.49 138.754 234.317 134.647C238.144 130.539 242.178 126.622 246.389 122.906C250.6 119.189 254.988 115.671 259.512 112.341L259.908 112.886L259.909 112.887Z" fill="black"/>
<path d="M260.055 109.006C254.946 112.451 249.982 116.11 245.213 120.014C240.444 123.916 235.872 128.061 231.54 132.448C227.207 136.833 223.116 141.458 219.286 146.293C215.456 151.127 211.888 156.17 208.576 161.377C211.841 156.14 215.364 151.063 219.154 146.189C222.943 141.315 226.998 136.646 231.299 132.212C235.599 127.778 240.145 123.581 244.891 119.624C249.637 115.667 254.584 111.95 259.676 108.449L260.055 109.006Z" fill="black"/>
<path d="M260.31 105.296C254.631 108.893 249.1 112.728 243.786 116.848C238.472 120.966 233.377 125.369 228.56 130.063C223.742 134.755 219.205 139.737 214.978 144.973C210.75 150.208 206.834 155.694 203.221 161.375C206.786 155.664 210.658 150.142 214.846 144.867C219.033 139.591 223.535 134.564 228.323 129.822C233.11 125.079 238.18 120.622 243.474 116.449C248.767 112.274 254.281 108.382 259.946 104.728L260.309 105.296H260.31Z" fill="black"/>
<path d="M260.229 102.007C254.019 105.732 247.957 109.708 242.129 114.007C236.3 118.304 230.707 122.926 225.43 127.888C220.151 132.849 215.19 138.15 210.591 143.752C205.99 149.353 201.753 155.251 197.869 161.374C201.705 155.221 205.899 149.287 210.46 143.646C215.02 138.003 219.947 132.655 225.197 127.644C230.446 122.631 236.016 117.955 241.826 113.602C247.636 109.247 253.683 105.213 259.879 101.431L260.228 102.008L260.229 102.007Z" fill="black"/>
<path d="M260.009 98.963C253.291 102.807 246.717 106.908 240.39 111.367C234.063 115.823 227.984 120.639 222.255 125.848C216.525 131.054 211.148 136.651 206.184 142.597C201.218 148.541 196.665 154.83 192.515 161.374C196.617 154.8 201.126 148.475 206.054 142.49C210.98 136.503 216.324 130.857 222.027 125.6C227.729 120.34 233.786 115.469 240.096 110.956C246.406 106.441 252.967 102.281 259.671 98.38L260.008 98.964L260.009 98.963Z" fill="black"/>
<path d="M260.111 95.875C252.862 99.843 245.749 104.065 238.892 108.678C232.035 113.288 225.438 118.291 219.226 123.744C213.013 129.193 207.189 135.091 201.835 141.392C196.477 147.69 191.59 154.387 187.161 161.373C191.543 154.357 196.387 147.624 201.707 141.283C207.024 134.94 212.815 128.993 219.004 123.491C225.19 117.986 231.768 112.926 238.609 108.259C245.45 103.589 252.551 99.309 259.786 95.284L260.112 95.874L260.111 95.875Z" fill="black"/>
<path d="M260.157 92.944C252.393 97.038 244.751 101.371 237.372 106.123C229.993 110.872 222.88 116.044 216.187 121.722C209.491 127.396 203.221 133.577 197.478 140.22C191.73 146.859 186.512 153.953 181.809 161.373C186.464 153.923 191.64 146.793 197.351 140.11C203.058 133.425 209.297 127.194 215.969 121.466C222.639 115.734 229.734 110.505 237.098 105.699C244.462 100.889 252.092 96.498 259.842 92.349L260.158 92.944H260.157Z" fill="black"/>
<path d="M260.184 90.124C251.916 94.35 243.754 98.79 235.857 103.671C227.96 108.548 220.332 113.872 213.154 119.761C205.974 125.645 199.253 132.095 193.118 139.069C186.979 146.039 181.429 153.523 176.455 161.371C181.381 153.493 186.888 145.971 192.991 138.958C199.089 131.94 205.781 125.439 212.939 119.501C220.094 113.557 227.707 108.176 235.59 103.241C243.473 98.302 251.623 93.805 259.875 89.524L260.184 90.123V90.124Z" fill="black"/>
<path d="M260.242 87.368C251.479 91.74 242.8 96.288 234.384 101.291C225.969 106.29 217.82 111.753 210.151 117.841C202.48 123.922 195.299 130.63 188.768 137.929C182.231 145.223 176.347 153.096 171.102 161.372C176.299 153.066 182.14 145.155 188.642 137.817C195.138 130.474 202.291 123.714 209.941 117.578C217.589 111.435 225.724 105.914 234.125 100.858C242.528 95.797 251.194 91.193 259.94 86.767L260.243 87.369L260.242 87.368Z" fill="black"/>
<path d="M260.208 84.716C250.97 89.249 241.789 93.905 232.866 99.024C223.944 104.138 215.282 109.726 207.126 115.996C203.048 119.129 199.098 122.43 195.303 125.902C191.508 129.373 187.868 133.016 184.404 136.82C177.471 144.425 171.257 152.676 165.747 161.371C171.209 152.646 177.381 144.357 184.279 136.707C187.726 132.881 191.35 129.213 195.131 125.716C198.912 122.218 202.851 118.891 206.919 115.73C215.055 109.404 223.704 103.758 232.612 98.587C241.522 93.411 250.689 88.698 259.908 84.112L260.207 84.716H260.208Z" fill="black"/>
<path d="M260.308 82.037C250.595 86.757 240.908 91.532 231.469 96.768C222.031 101.999 212.842 107.703 204.184 114.149C199.855 117.37 195.66 120.772 191.632 124.364C187.604 127.955 183.744 131.736 180.075 135.695C176.406 139.654 172.928 143.79 169.649 148.079C166.369 152.368 163.288 156.808 160.396 161.369C163.265 156.793 166.323 152.336 169.582 148.028C172.84 143.72 176.299 139.562 179.951 135.58C183.603 131.598 187.448 127.792 191.463 124.175C195.478 120.557 199.662 117.127 203.982 113.878C212.622 107.375 221.799 101.613 231.223 96.325C240.649 91.032 250.322 86.201 260.013 81.43L260.309 82.035L260.308 82.037Z" fill="black"/>
<path d="M260.127 79.514C249.977 84.436 239.816 89.335 229.89 94.683C219.966 100.026 210.277 105.832 201.138 112.435C196.569 115.734 192.139 119.227 187.887 122.928C183.635 126.628 179.563 130.535 175.697 134.639C171.831 138.742 168.173 143.041 164.731 147.508C161.289 151.974 158.062 156.607 155.041 161.37C158.038 156.592 161.242 151.942 164.664 147.456C168.085 142.97 171.725 138.65 175.574 134.523C179.423 130.396 183.481 126.463 187.72 122.737C191.959 119.01 196.379 115.488 200.939 112.161C210.06 105.501 219.738 99.637 229.649 94.237C239.561 88.833 249.707 83.879 259.831 78.907L260.127 79.513V79.514Z" fill="black"/>
<path d="M260.062 76.932C249.479 82.091 238.841 87.13 228.422 92.596C223.213 95.328 218.059 98.167 213.002 101.169C207.945 104.171 202.985 107.339 198.169 110.714C193.352 114.088 188.68 117.67 184.197 121.478C179.714 125.285 175.421 129.318 171.352 133.566C167.282 137.814 163.437 142.277 159.827 146.924C156.216 151.57 152.841 156.399 149.688 161.369C152.817 156.384 156.17 151.538 159.76 146.872C163.349 142.206 167.176 137.721 171.23 133.45C175.283 129.178 179.562 125.12 184.033 121.286C188.504 117.451 193.167 113.841 197.975 110.439C202.783 107.036 207.736 103.839 212.786 100.808C217.836 97.776 222.984 94.909 228.186 92.149C238.591 86.627 249.212 81.534 259.765 76.327L260.062 76.932Z" fill="black"/>
<path d="M260.219 74.221C249.202 79.664 238.075 84.869 227.146 90.465C221.682 93.262 216.267 96.157 210.948 99.219C205.629 102.28 200.405 105.509 195.329 108.958C190.253 112.406 185.325 116.075 180.597 119.99C175.869 123.903 171.343 128.062 167.059 132.459C162.774 136.854 158.731 141.486 154.944 146.319C151.156 151.152 147.625 156.184 144.335 161.371C147.602 156.17 151.111 151.12 154.878 146.268C158.644 141.415 162.669 136.761 166.938 132.342C171.206 127.922 175.719 123.737 180.436 119.796C185.152 115.854 190.071 112.157 195.139 108.68C200.207 105.202 205.425 101.944 210.737 98.855C216.05 95.765 221.458 92.841 226.915 90.017C237.829 84.366 248.936 79.109 259.919 73.619L260.219 74.223V74.221Z" fill="black"/>
<path d="M260.186 71.561C248.769 77.319 237.178 82.707 225.761 88.436C220.052 91.301 214.387 94.251 208.814 97.369C203.242 100.486 197.762 103.772 192.433 107.288C187.104 110.804 181.926 114.552 176.959 118.565C171.992 122.577 167.237 126.854 162.741 131.39C158.244 135.925 154.008 140.718 150.049 145.73C146.089 150.742 142.405 155.972 138.981 161.367C142.381 155.957 146.042 150.71 149.982 145.678C153.921 140.646 158.14 135.831 162.621 131.271C167.101 126.711 171.843 122.407 176.799 118.368C181.755 114.327 186.924 110.551 192.246 107.006C197.568 103.46 203.041 100.146 208.607 97C214.173 93.854 219.832 90.875 225.532 87.983C236.933 82.199 248.501 76.76 259.88 70.958L260.185 71.559L260.186 71.561Z" fill="black"/>
<path d="M260.131 68.851C248.335 74.966 236.292 80.563 224.393 86.438C218.443 89.376 212.529 92.385 206.704 95.559C200.879 98.732 195.143 102.072 189.56 105.653C183.977 109.233 178.547 113.056 173.338 117.164C168.129 121.27 163.142 125.661 158.433 130.334C153.722 135.005 149.29 139.957 145.156 145.148C141.021 150.338 137.185 155.764 133.628 161.369C137.161 155.75 140.975 150.306 145.091 145.096C149.205 139.886 153.619 134.911 158.315 130.215C163.009 125.518 167.983 121.1 173.182 116.966C178.38 112.831 183.802 108.979 189.378 105.37C194.954 101.76 200.684 98.391 206.502 95.19C212.321 91.988 218.228 88.951 224.169 85.986C236.05 80.056 248.068 74.41 259.821 68.254L260.133 68.852L260.131 68.851Z" fill="black"/>
<path d="M260.098 66.046C247.947 72.571 235.457 78.407 223.078 84.442C216.888 87.459 210.723 90.529 204.644 93.761C198.565 96.992 192.571 100.385 186.73 104.029C180.89 107.671 175.204 111.566 169.749 115.765C164.293 119.962 159.069 124.463 154.139 129.269C149.207 134.073 144.571 139.181 140.254 144.546C135.939 149.914 131.958 155.548 128.275 161.368C131.934 155.533 135.893 149.881 140.188 144.493C144.485 139.108 149.104 133.977 154.021 129.148C158.936 124.317 164.148 119.789 169.595 115.564C175.041 111.337 180.718 107.414 186.552 103.742C192.386 100.069 198.374 96.647 204.446 93.388C210.518 90.128 216.675 87.03 222.856 83.986C235.216 77.899 247.677 72.013 259.779 65.451L260.099 66.044L260.098 66.046Z" fill="black"/>
<path d="M260.373 62.96C247.875 69.974 234.926 76.106 222.045 82.333C215.604 85.447 209.176 88.589 202.828 91.885C196.48 95.18 190.211 98.628 184.095 102.335C177.98 106.041 172.019 110.007 166.298 114.298C160.576 118.587 155.097 123.202 149.93 128.148C144.762 133.092 139.909 138.365 135.399 143.919C130.891 149.475 126.745 155.321 122.919 161.367C126.722 155.306 130.845 149.442 135.334 143.866C139.824 138.292 144.66 132.995 149.813 128.026C154.965 123.055 160.434 118.413 166.146 114.096C171.858 109.777 177.811 105.782 183.919 102.047C190.028 98.311 196.292 94.834 202.632 91.511C208.973 88.187 215.392 85.018 221.823 81.878C234.682 75.6 247.598 69.421 260.041 62.372L260.372 62.959L260.373 62.96Z" fill="black"/>
<path d="M260.234 59.971C253.842 63.731 247.302 67.228 240.696 70.583C234.089 73.939 227.415 77.155 220.744 80.37C214.073 83.586 207.402 86.8 200.804 90.158C194.206 93.515 187.68 97.015 181.307 100.78C174.934 104.543 168.715 108.572 162.744 112.946C156.772 117.317 151.05 122.034 145.659 127.108C140.267 132.179 135.208 137.606 130.518 143.335C125.828 149.066 121.527 155.11 117.567 161.367C121.504 155.095 125.783 149.033 130.453 143.281C135.124 137.531 140.165 132.082 145.544 126.985C150.921 121.886 156.632 117.142 162.595 112.742C168.558 108.34 174.77 104.282 181.136 100.49C187.503 96.697 194.023 93.168 200.613 89.783C207.203 86.397 213.865 83.155 220.524 79.915C227.183 76.674 233.842 73.435 240.429 70.058C247.015 66.681 253.531 63.166 259.893 59.391L260.236 59.971H260.234Z" fill="black"/>
<path d="M260.042 56.863C253.524 60.903 246.822 64.632 240.028 68.175C233.234 71.719 226.349 75.078 219.453 78.406C212.557 81.734 205.646 85.03 198.8 88.455C191.955 91.879 185.172 95.431 178.541 99.252C171.91 103.071 165.431 107.159 159.207 111.612C152.982 116.062 147.015 120.876 141.398 126.075C135.779 131.271 130.512 136.848 125.639 142.751C120.766 148.656 116.308 154.898 112.213 161.367C116.284 154.883 120.72 148.623 125.574 142.697C130.428 136.773 135.678 131.172 141.284 125.951C146.888 120.727 152.844 115.885 159.061 111.407C165.277 106.926 171.749 102.808 178.374 98.961C184.999 95.112 191.775 91.531 198.613 88.08C205.451 84.628 212.351 81.306 219.234 77.953C226.117 74.601 232.984 71.218 239.756 67.654C246.527 64.091 253.202 60.345 259.687 56.292L260.043 56.864L260.042 56.863Z" fill="black"/>
<path d="M260.231 53.327C253.6 57.702 246.738 61.712 239.755 65.483C232.771 69.256 225.666 72.792 218.531 76.257C211.396 79.723 204.229 83.118 197.116 86.621C190.003 90.123 182.943 93.735 176.031 97.615C169.119 101.494 162.356 105.644 155.854 110.178C149.352 114.709 143.114 119.626 137.247 124.956C131.377 130.283 125.881 136.022 120.806 142.114C115.73 148.207 111.101 154.665 106.859 161.365C111.077 154.65 115.684 148.174 120.741 142.06C125.797 135.947 131.277 130.184 137.133 124.831C142.987 119.475 149.215 114.53 155.709 109.97C162.203 105.407 168.96 101.228 175.865 97.32C182.771 93.411 189.825 89.771 196.929 86.242C204.034 82.713 211.189 79.291 218.309 75.802C225.429 72.313 232.514 68.755 239.473 64.964C246.431 61.174 253.263 57.149 259.858 52.765L260.23 53.327H260.231Z" fill="black"/>
<path d="M260.091 49.787C253.377 54.509 246.383 58.816 239.232 62.83C232.081 66.846 224.775 70.572 217.419 74.185C210.063 77.798 202.655 81.3 195.289 84.884C187.923 88.468 180.599 92.138 173.419 96.076C166.239 100.012 159.203 104.218 152.433 108.827C145.664 113.432 139.165 118.442 133.055 123.896C126.943 129.346 121.224 135.237 115.954 141.508C110.683 147.779 105.888 154.444 101.506 161.365C105.864 154.428 110.638 147.746 115.89 141.454C121.141 135.162 126.844 129.247 132.943 123.771C139.04 118.291 145.529 113.253 152.291 108.619C159.052 103.982 166.083 99.746 173.257 95.782C180.432 91.816 187.749 88.117 195.105 84.507C202.462 80.897 209.857 77.369 217.196 73.733C224.535 70.097 231.819 66.351 238.943 62.318C246.066 58.287 253.027 53.967 259.703 49.238L260.092 49.789L260.091 49.787Z" fill="black"/>
<path d="M260.354 45.698C253.58 50.83 246.465 55.497 239.149 59.807C231.833 64.12 224.319 68.081 216.73 71.875C201.552 79.467 186.059 86.404 171.106 94.411C163.631 98.411 156.294 102.676 149.229 107.363C142.164 112.046 135.374 117.154 128.994 122.738C122.612 128.319 116.644 134.374 111.157 140.84C105.669 147.307 100.689 154.197 96.1529 161.363C100.666 154.182 105.623 147.273 111.093 140.785C116.561 134.298 122.513 128.218 128.883 122.61C135.251 116.999 142.031 111.863 149.089 107.151C156.147 102.436 163.479 98.141 170.947 94.113C185.887 86.049 201.363 79.057 216.504 71.422C224.074 67.605 231.564 63.626 238.85 59.298C246.135 54.973 253.214 50.296 259.947 45.16L260.355 45.697L260.354 45.698Z" fill="black"/>
<path d="M260.123 41.687C253.322 47.225 246.121 52.259 238.671 56.872C231.221 61.49 223.527 65.695 215.729 69.68C200.133 77.655 184.116 84.753 168.615 92.881C160.866 96.942 153.247 101.26 145.903 106.017C138.559 110.769 131.495 115.964 124.86 121.668C118.222 127.367 112.019 133.574 106.327 140.221C100.634 146.869 95.4809 153.971 90.7989 161.366C95.4569 153.956 100.588 146.836 106.263 140.167C111.936 133.498 118.124 127.267 124.75 121.541C131.373 115.81 138.429 110.587 145.765 105.806C153.102 101.021 160.715 96.673 168.458 92.584C183.946 84.4 199.944 77.248 215.498 69.232C223.275 65.226 230.942 61.004 238.359 56.373C245.776 51.747 252.938 46.706 259.696 41.167L260.122 41.689L260.123 41.687Z" fill="black"/>
<path d="M260.16 37.128C253.361 43.126 246.098 48.583 238.528 53.558C230.957 58.536 223.084 63.034 215.073 67.248C199.048 75.684 182.474 82.985 166.381 91.245C158.336 95.375 150.412 99.749 142.765 104.578C135.119 109.402 127.755 114.686 120.839 120.514C113.921 126.337 107.459 132.704 101.543 139.546C95.6249 146.389 90.2829 153.719 85.4439 161.362C90.2589 153.704 95.5799 146.355 101.479 139.491C107.377 132.627 113.824 126.236 120.73 120.385C127.634 114.529 134.989 109.217 142.629 104.364C150.269 99.506 158.188 95.102 166.226 90.945C182.306 82.629 198.858 75.276 214.837 66.801C222.825 62.567 230.668 58.053 238.203 53.065C245.737 48.08 252.959 42.618 259.713 36.622L260.16 37.127V37.128Z" fill="black"/>
<path d="M260.09 32.277C253.329 38.758 246.036 44.672 238.371 50.041C234.539 52.727 230.615 55.28 226.623 57.719C222.63 60.157 218.569 62.48 214.463 64.718C206.249 69.194 197.856 73.32 189.434 77.373C181.012 81.426 172.558 85.409 164.213 89.612C155.87 93.814 147.636 98.246 139.681 103.144C131.727 108.038 124.056 113.407 116.853 119.358C109.648 125.303 102.92 131.829 96.7729 138.866C90.6259 145.905 85.0889 153.466 80.0909 161.362C85.0649 153.452 90.5799 145.872 96.7089 138.811C102.838 131.752 109.55 125.2 116.745 119.228C123.936 113.25 131.599 107.852 139.547 102.929C147.495 98.001 155.723 93.541 164.059 89.311C172.396 85.081 180.841 81.071 189.249 76.993C197.657 72.916 206.031 68.767 214.219 64.274C218.313 62.028 222.359 59.697 226.336 57.252C230.312 54.806 234.218 52.248 238.031 49.558C245.658 44.182 252.907 38.266 259.622 31.791L260.089 32.277H260.09Z" fill="black"/>
<path d="M260.149 26.856C253.463 33.863 246.178 40.29 238.444 46.109C230.711 51.935 222.539 57.153 214.132 61.935C205.722 66.718 197.082 71.072 188.386 75.293C179.69 79.515 170.935 83.608 162.275 87.896C153.616 92.18 145.053 96.67 136.768 101.642C128.484 106.608 120.483 112.062 112.971 118.139C105.456 124.209 98.4409 130.9 92.0459 138.144C85.6519 145.391 79.9059 153.197 74.7379 161.363C79.8819 153.183 85.6069 145.358 91.9829 138.089C98.3599 130.823 105.361 124.106 112.865 118.009C120.366 111.905 128.36 106.421 136.637 101.426C144.915 96.425 153.473 91.906 162.124 87.595C170.775 83.28 179.52 79.16 188.2 74.915C196.879 70.671 205.499 66.296 213.88 61.497C222.258 56.699 230.396 51.469 238.087 45.639C245.781 39.816 253.02 33.391 259.659 26.392L260.147 26.856H260.149Z" fill="black"/>
<path d="M260.233 20.88C256.946 24.661 253.497 28.302 249.896 31.785C246.295 35.268 242.543 38.593 238.659 41.756C230.893 48.086 222.601 53.75 214.012 58.888C209.717 61.459 205.349 63.904 200.933 66.257C196.516 68.609 192.052 70.868 187.565 73.079C178.59 77.5 169.524 81.724 160.538 86.109C151.553 90.494 142.64 95.04 134.009 100.086C125.378 105.125 117.027 110.664 109.186 116.868C105.265 119.968 101.472 123.229 97.8279 126.652C94.1839 130.074 90.6909 133.656 87.3589 137.384C80.7029 144.848 74.7329 152.911 69.3859 161.362C74.7089 152.897 80.658 144.815 87.2959 137.328C90.618 133.589 94.104 129.995 97.741 126.56C101.378 123.125 105.165 119.85 109.081 116.736C116.912 110.504 125.256 104.936 133.881 99.868C142.506 94.792 151.413 90.218 160.389 85.806C169.367 81.394 178.421 77.145 187.378 72.701C191.856 70.479 196.31 68.21 200.715 65.848C205.119 63.486 209.474 61.033 213.753 58.455C222.311 53.302 230.564 47.631 238.287 41.299C242.149 38.136 245.879 34.812 249.457 31.331C253.035 27.851 256.461 24.215 259.724 20.439L260.234 20.88H260.233Z" fill="black"/>
<path d="M260.32 14.287C257.11 18.363 253.725 22.302 250.169 26.079C246.614 29.857 242.887 33.474 239.007 36.916C235.127 40.359 231.094 43.628 226.936 46.726C222.778 49.825 218.494 52.753 214.118 55.532C205.364 61.093 196.243 66.044 186.991 70.704C177.736 75.364 168.347 79.742 159.02 84.24C149.693 88.737 140.421 93.359 131.419 98.475C122.418 103.585 113.697 109.211 105.504 115.543C101.407 118.707 97.4429 122.043 93.6379 125.553C89.8329 129.062 86.1859 132.744 82.7139 136.585C75.7779 144.276 69.5689 152.609 64.033 161.362C69.5449 152.595 75.7329 144.243 82.6509 136.529C86.1139 132.677 89.7539 128.983 93.5519 125.461C97.3499 121.938 101.308 118.588 105.4 115.41C113.584 109.051 122.298 103.395 131.293 98.256C140.289 93.111 149.555 88.46 158.873 83.937C168.191 79.412 177.566 75.009 186.801 70.328C196.033 65.648 205.127 60.678 213.847 55.106C218.206 52.322 222.471 49.389 226.609 46.288C230.747 43.188 234.759 39.918 238.616 36.476C242.474 33.035 246.177 29.421 249.709 25.647C253.242 21.874 256.603 17.941 259.79 13.871L260.321 14.286L260.32 14.287Z" fill="black"/>
<path d="M260.231 7.232C257.114 11.607 253.813 15.851 250.324 19.935C246.836 24.019 243.159 27.943 239.305 31.683C235.452 35.424 231.422 38.983 227.242 42.354C223.062 45.726 218.733 48.91 214.289 51.921C205.401 57.948 196.058 63.271 186.534 68.205C177.009 73.145 167.298 77.705 157.625 82.331C147.953 86.957 138.311 91.657 128.932 96.851C124.243 99.447 119.621 102.165 115.1 105.044C110.58 107.923 106.165 110.968 101.885 114.195C93.3249 120.645 85.3249 127.848 78.0949 135.767C74.4809 139.726 71.0569 143.858 67.8229 148.134C64.5889 152.41 61.545 156.829 58.6779 161.36C61.534 156.822 64.5659 152.394 67.7899 148.109C71.0129 143.824 74.4279 139.681 78.033 135.71C85.2459 127.769 93.2329 120.539 101.784 114.06C106.059 110.819 110.47 107.759 114.987 104.866C119.504 101.972 124.123 99.24 128.809 96.63C138.182 91.407 147.817 86.679 157.479 82.027C167.141 77.375 176.837 72.791 186.34 67.831C195.842 62.876 205.154 57.539 214.005 51.503C218.43 48.487 222.739 45.301 226.897 41.928C231.056 38.556 235.063 34.999 238.893 31.26C242.724 27.522 246.378 23.603 249.843 19.524C253.309 15.446 256.586 11.208 259.681 6.842L260.231 7.231V7.232Z" fill="black"/>
<path d="M260.36 -0.939003C257.358 3.761 254.169 8.34 250.775 12.765C247.382 17.19 243.784 21.459 239.985 25.541C232.391 33.712 223.969 41.098 214.977 47.685C205.984 54.279 196.423 60.06 186.617 65.34C176.809 70.626 166.753 75.424 156.703 80.211C146.652 84.998 136.602 89.793 126.804 95.074C121.905 97.714 117.071 100.474 112.339 103.401C107.607 106.328 102.977 109.423 98.491 112.714C89.518 119.294 81.1269 126.684 73.5709 134.859C69.7899 138.943 66.212 143.215 62.84 147.643C59.4679 152.071 56.3009 156.655 53.3239 161.359C56.2889 156.648 59.4449 152.055 62.8069 147.618C66.1679 143.18 69.7369 138.898 73.5089 134.803C81.049 126.605 89.4269 119.188 98.3909 112.579C102.873 109.273 107.499 106.164 112.228 103.222C116.957 100.28 121.788 97.505 126.684 94.851C136.476 89.541 146.52 84.718 156.558 79.906C166.596 75.093 176.634 70.272 186.417 64.968C196.198 59.67 205.725 53.876 214.678 47.276C223.63 40.683 232.006 33.3 239.553 25.138C243.329 21.06 246.903 16.797 250.273 12.379C253.644 7.963 256.811 3.391 259.791 -1.3L260.36 -0.939003Z" fill="black"/>
<path d="M255.02 -0.939003C252.018 3.761 248.828 8.341 245.435 12.767C242.042 17.193 238.445 21.463 234.647 25.546C227.054 33.718 218.634 41.108 209.641 47.696C200.648 54.293 191.086 60.072 181.278 65.35C171.467 70.634 161.409 75.428 151.356 80.211C141.303 84.994 131.249 89.785 121.449 95.064C116.549 97.703 111.714 100.462 106.981 103.389C102.248 106.316 97.6179 109.41 93.1319 112.703C84.1599 119.286 75.769 126.677 68.214 134.855C64.4339 138.94 60.8569 143.213 57.4849 147.642C54.1129 152.071 50.9469 156.655 47.9689 161.359C50.9339 156.647 54.09 152.054 57.451 147.616C60.812 143.177 64.3789 138.894 68.1509 134.797C75.6889 126.596 84.0669 119.178 93.031 112.567C97.5129 109.26 102.139 106.151 106.869 103.21C111.599 100.268 116.431 97.494 121.327 94.841C131.121 89.533 141.168 84.714 151.209 79.906C161.25 75.097 171.291 70.28 181.076 64.978C190.859 59.682 200.387 53.889 209.34 47.287C218.292 40.693 226.666 33.306 234.213 25.143C237.988 21.064 241.561 16.8 244.931 12.381C248.303 7.964 251.47 3.391 254.45 -1.3L255.019 -0.939003H255.02Z" fill="black"/>
<path d="M249.679 -0.939003C246.677 3.761 243.487 8.342 240.095 12.769C236.703 17.196 233.107 21.467 229.309 25.552C221.716 33.726 213.298 41.118 204.306 47.708C195.314 54.307 185.75 60.085 175.94 65.361C166.127 70.642 156.067 75.433 146.011 80.212C135.955 84.991 125.899 89.778 116.096 95.055C111.195 97.692 106.359 100.451 101.626 103.378C96.8929 106.304 92.2629 109.399 87.7759 112.693C78.8049 119.279 70.4139 126.67 62.8609 134.851C59.0809 138.937 55.505 143.211 52.1339 147.641C48.763 152.071 45.5959 156.656 42.6189 161.36C45.5849 156.648 48.7399 152.055 52.1009 147.615C55.4609 143.176 59.0279 138.891 62.7989 134.793C70.3349 126.589 78.7139 119.171 87.6759 112.556C92.1579 109.249 96.785 106.139 101.515 103.198C106.245 100.256 111.078 97.483 115.976 94.831C125.772 89.525 135.821 84.71 145.866 79.906C155.91 75.101 165.953 70.288 175.74 64.988C185.525 59.694 195.055 53.903 204.007 47.298C212.959 40.703 221.331 33.313 228.878 25.148C232.652 21.068 236.225 16.802 239.594 12.383C242.962 7.965 246.129 3.392 249.109 -1.3L249.678 -0.939003H249.679Z" fill="black"/>
<path d="M244.338 -0.939003C241.336 3.761 238.146 8.343 234.754 12.77C231.362 17.197 227.767 21.47 223.97 25.556C216.378 33.731 207.961 41.127 198.969 47.718C189.978 54.319 180.411 60.096 170.6 65.37C160.785 70.649 150.722 75.436 140.663 80.211C130.604 84.986 120.545 89.769 110.741 95.044C105.839 97.68 101.002 100.438 96.268 103.365C91.534 106.291 86.9039 109.386 82.4169 112.68C73.4469 119.268 65.0569 126.662 57.5039 134.845C53.7249 138.933 50.1499 143.208 46.7789 147.638C43.4079 152.069 40.242 156.654 37.264 161.359C40.2299 156.647 43.3849 152.053 46.7449 147.613C50.1049 143.173 53.6709 138.887 57.4409 134.788C64.9769 126.582 73.3539 119.161 82.3159 112.545C86.7979 109.237 91.4249 106.127 96.156 103.187C100.887 100.246 105.721 97.473 110.62 94.822C120.419 89.518 130.47 84.707 140.517 79.907C150.564 75.106 160.61 70.297 170.399 65C180.185 59.708 189.718 53.918 198.669 47.311C207.622 40.715 215.992 33.322 223.537 25.155C227.311 21.073 230.882 16.807 234.251 12.387C237.621 7.966 240.788 3.392 243.768 -1.3L244.337 -0.939003H244.338Z" fill="black"/>
<path d="M238.997 -0.939003C235.994 3.762 232.805 8.344 229.413 12.772C226.022 17.2 222.427 21.474 218.631 25.561C211.039 33.738 202.625 41.137 193.632 47.729C184.641 54.333 175.073 60.108 165.259 65.38C155.442 70.657 145.376 75.44 135.314 80.211C125.252 84.982 115.191 89.761 105.384 95.034C100.481 97.669 95.6439 100.427 90.9089 103.353C86.1749 106.279 81.5429 109.374 77.0569 112.669C68.0869 119.258 59.6989 126.656 52.1469 134.84C48.3689 138.929 44.7939 143.205 41.4239 147.637C38.0539 152.068 34.888 156.655 31.91 161.36C34.8759 156.647 38.0309 152.053 41.3909 147.612C44.7499 143.171 48.3159 138.884 52.0849 134.784C59.6199 126.577 67.9959 119.153 76.9569 112.535C81.4389 109.226 86.0669 106.116 90.7979 103.176C95.5289 100.235 100.364 97.463 105.264 94.813C115.065 89.512 125.119 84.705 135.169 79.908C145.218 75.111 155.267 70.306 165.059 65.011C174.847 59.721 184.382 53.932 193.332 47.323C202.285 40.726 210.653 33.329 218.198 25.162C221.971 21.079 225.542 16.812 228.91 12.39C232.28 7.967 235.447 3.392 238.427 -1.3L238.996 -0.939003H238.997Z" fill="black"/>
<path d="M233.656 -0.939003C230.653 3.762 227.464 8.345 224.073 12.774C220.682 17.203 217.088 21.478 213.293 25.566C205.701 33.744 197.289 41.147 188.296 47.739C179.306 54.345 169.736 60.119 159.92 65.389C150.101 70.664 140.032 75.442 129.968 80.21C119.904 84.977 109.839 89.752 100.031 95.023C90.225 100.287 80.674 106.061 71.701 112.657C62.7309 119.248 54.3449 126.648 46.7929 134.834C43.0159 138.924 39.4409 143.201 36.0719 147.634C32.702 152.066 29.5359 156.653 26.5579 161.358C29.5249 156.645 32.6789 152.05 36.0379 147.608C39.3969 143.166 42.9609 138.878 46.7299 134.777C54.2649 126.569 62.6379 119.141 71.5999 112.522C80.5639 105.897 90.1099 100.094 99.9099 94.801C109.713 89.502 119.77 84.699 129.823 79.906C139.875 75.113 149.927 70.312 159.72 65.019C169.51 59.731 179.047 53.943 187.996 47.332C196.949 40.734 205.315 33.334 212.86 25.165C216.632 21.081 220.203 16.812 223.57 12.39C226.939 7.967 230.105 3.393 233.086 -1.3L233.655 -0.939003H233.656Z" fill="black"/>
<path d="M228.315 -0.939003C225.312 3.762 222.123 8.346 218.732 12.775C215.342 17.205 211.749 21.481 207.954 25.57C200.363 33.749 191.953 41.156 182.959 47.749C173.97 54.357 164.398 60.13 154.58 65.398C144.759 70.671 134.687 75.445 124.62 80.209C114.553 84.972 104.486 89.743 94.6749 95.011C84.8669 100.273 75.3139 106.046 66.3419 112.644C57.3709 119.236 48.9869 126.64 41.4359 134.826C37.6589 138.917 34.0859 143.196 30.7169 147.629C27.3479 152.062 24.1819 156.649 21.2029 161.355C24.1699 156.642 27.3239 152.046 30.6829 147.603C34.0409 143.16 37.6049 138.871 41.3729 134.768C48.9069 126.558 57.2789 119.127 66.2409 112.507C75.2039 105.88 84.752 100.078 94.5539 94.787C104.359 89.49 114.419 84.691 124.474 79.903C134.529 75.115 144.583 70.317 154.379 65.026C164.171 59.74 173.709 53.954 182.658 47.34C191.611 40.741 199.975 33.337 207.52 25.167C211.291 21.082 214.861 16.812 218.229 12.389C221.598 7.968 224.764 3.393 227.746 -1.3L228.315 -0.939003Z" fill="black"/>
<path d="M222.974 -0.939003C219.97 3.763 216.782 8.346 213.392 12.777C210.002 17.208 206.41 21.485 202.616 25.575C195.025 33.756 186.617 41.165 177.623 47.76C168.634 54.37 159.061 60.143 149.241 65.409C139.418 70.679 129.343 75.45 119.273 80.209C109.203 84.968 99.1329 89.735 89.3199 95.001C79.5099 100.261 69.9549 106.032 60.9839 112.633C52.013 119.226 43.6309 126.633 36.0799 134.821C32.3039 138.914 28.7309 143.193 25.3629 147.627C21.9939 152.061 18.8289 156.649 15.8499 161.355C18.8169 156.642 21.9709 152.045 25.3299 147.602C28.6879 143.158 32.2509 138.868 36.0189 134.764C43.5529 126.553 51.9219 119.118 60.8849 112.497C69.8469 105.867 79.3969 100.067 89.2009 94.778C99.0079 89.483 109.071 84.688 119.129 79.904C129.187 75.12 139.244 70.326 149.042 65.037C158.836 59.753 168.376 53.967 177.324 47.352C186.278 40.752 194.64 33.345 202.184 25.173C205.955 21.087 209.524 16.816 212.891 12.392C216.257 7.969 219.423 3.393 222.405 -1.3L222.974 -0.939003Z" fill="black"/>
<path d="M217.633 -0.939003C214.629 3.763 211.441 8.347 208.051 12.779C204.662 17.211 201.07 21.489 197.277 25.581C193.482 29.672 189.482 33.57 185.308 37.272C181.134 40.973 176.782 44.472 172.286 47.772C163.297 54.383 153.723 60.157 143.901 65.42C134.076 70.688 123.998 75.455 113.926 80.21C103.853 84.965 93.7809 89.728 83.9659 94.992C74.1539 100.25 64.5969 106.02 55.6269 112.624C46.6559 119.218 38.2759 126.629 30.7259 134.818C26.951 138.912 23.3789 143.192 20.0109 147.627C16.6419 152.062 13.4779 156.65 10.4979 161.357C13.4649 156.643 16.6189 152.046 19.9769 147.602C23.3339 143.157 26.8969 138.866 30.664 134.761C38.1969 126.548 46.5649 119.111 55.5269 112.488C64.489 105.856 74.0399 100.056 83.8469 94.77C93.6559 89.477 103.722 84.686 113.783 79.906C123.844 75.126 133.904 70.336 143.703 65.049C153.5 59.768 163.04 53.981 171.988 47.365C176.464 44.062 180.794 40.563 184.946 36.863C189.097 33.163 193.075 29.267 196.846 25.181C200.616 21.093 204.184 16.821 207.551 12.397C210.916 7.97 214.082 3.394 217.064 -1.3L217.633 -0.939003Z" fill="black"/>
<path d="M212.292 -0.939003C209.288 3.763 206.1 8.348 202.711 12.78C199.322 17.212 195.731 21.492 191.939 25.585C188.144 29.676 184.145 33.577 179.972 37.279C175.798 40.981 171.447 44.481 166.951 47.782C162.455 51.084 157.816 54.188 153.07 57.113C148.324 60.041 143.476 62.797 138.563 65.429C128.736 70.695 118.655 75.458 108.58 80.209C98.504 84.96 88.4289 89.719 78.6119 94.981C68.7979 100.237 59.2389 106.006 50.2699 112.612C41.299 119.207 32.9209 126.621 25.3709 134.812C21.5959 138.907 18.025 143.189 14.6579 147.625C11.2899 152.061 8.12495 156.65 5.14595 161.356C8.11395 156.642 11.267 152.044 14.625 147.599C17.9819 143.154 21.5439 138.861 25.3099 134.755C32.8429 126.541 41.208 119.1 50.1709 112.476C59.132 105.842 68.6849 100.043 78.4939 94.758C88.3049 89.468 98.3739 84.68 108.437 79.904C118.5 75.128 128.563 70.342 138.365 65.058C148.164 59.78 157.705 53.993 166.654 47.375C171.13 44.072 175.46 40.571 179.611 36.87C183.762 33.169 187.738 29.271 191.509 25.185C195.278 21.096 198.846 16.823 202.212 12.397C205.575 7.971 208.741 3.394 211.723 -1.3L212.292 -0.939003Z" fill="black"/>
<path d="M206.951 -0.939003C203.947 3.763 200.759 8.349 197.37 12.782C193.982 17.215 190.391 21.496 186.6 25.59C182.805 29.681 178.807 33.584 174.634 37.287C170.461 40.99 166.109 44.491 161.613 47.793C157.117 51.095 152.479 54.2 147.731 57.125C142.985 60.052 138.135 62.808 133.221 65.439C123.391 70.703 113.308 75.462 103.23 80.209C93.1519 84.956 83.0739 89.711 73.2549 94.971C63.4389 100.225 53.878 105.993 44.909 112.601C35.937 119.197 27.5609 126.614 20.0119 134.807C16.2379 138.903 12.6679 143.186 9.30095 147.623C5.93295 152.06 2.76895 156.649 -0.211049 161.356C2.75695 156.642 5.90995 152.044 9.26695 147.597C12.6229 143.151 16.184 138.857 19.9499 134.75C27.4819 126.534 35.846 119.09 44.809 112.465C53.769 105.828 63.3249 100.031 73.1349 94.748C82.9479 89.46 93.0199 84.676 103.086 79.904C113.152 75.132 123.218 70.35 133.021 65.068C137.922 62.428 142.757 59.665 147.487 56.731C152.218 53.8 156.837 50.69 161.313 47.386C165.789 44.082 170.118 40.58 174.269 36.878C178.42 33.176 182.394 29.276 186.166 25.19C189.935 21.1 193.501 16.826 196.867 12.399C200.234 7.972 203.399 3.394 206.382 -1.3L206.951 -0.939003Z" fill="black"/>
<path d="M201.61 -0.939003C198.605 3.764 195.418 8.35 192.029 12.784C188.641 17.218 185.052 21.499 181.261 25.595C177.466 29.687 173.469 33.591 169.296 37.295C165.123 41 160.772 44.501 156.276 47.804C151.78 51.106 147.142 54.213 142.393 57.137C137.646 60.064 132.796 62.819 127.88 65.449C118.048 70.711 107.963 75.466 97.8819 80.209C87.8009 84.951 77.7199 89.703 67.8989 94.96C58.0809 100.212 48.5189 105.978 39.5499 112.589C35.0649 115.89 30.7269 119.391 26.569 123.096C22.4119 126.801 18.4289 130.704 14.6549 134.801C10.882 138.898 7.31195 143.182 3.94595 147.62C0.578952 152.057 -2.58505 156.648 -5.56605 161.355C-2.59805 156.64 0.55495 152.042 3.91195 147.595C7.26795 143.148 10.8279 138.853 14.5929 134.744C18.3579 130.636 22.333 126.72 26.4839 123.002C30.6359 119.284 34.9689 115.769 39.4489 112.454C48.4089 105.815 57.966 100.019 67.7779 94.738C77.5929 89.452 87.6679 84.672 97.7369 79.905C107.806 75.137 117.874 70.359 127.68 65.079C132.582 62.44 137.418 59.678 142.148 56.744C146.879 53.813 151.499 50.702 155.975 47.397C160.451 44.092 164.78 40.59 168.93 36.886C173.08 33.183 177.054 29.282 180.826 25.195C184.594 21.104 188.16 16.828 191.525 12.401C194.893 7.973 198.058 3.394 201.041 -1.3L201.61 -0.939003Z" fill="black"/>
<path d="M196.27 -0.939003C193.279 3.742 190.107 8.309 186.736 12.725C183.366 17.141 179.797 21.406 176.027 25.488C172.251 29.563 168.28 33.457 164.131 37.15C159.983 40.844 155.657 44.338 151.187 47.632C146.717 50.927 142.104 54.027 137.383 56.948C132.662 59.869 127.837 62.619 122.947 65.242C113.165 70.491 103.127 75.23 93.09 79.947C83.0519 84.664 73.0099 89.38 63.2199 94.589C53.4319 99.792 43.8949 105.5 34.9329 112.033C25.9709 118.559 17.591 125.895 10.03 134.01C6.24895 138.066 2.66895 142.308 -0.71005 146.705C-4.08905 151.101 -7.26805 155.651 -10.263 160.319C-7.28005 155.644 -4.11305 151.085 -0.74405 146.679C2.62395 142.273 6.19495 138.02 9.96795 133.953C17.5119 125.815 25.8799 118.451 34.8329 111.897C43.7869 105.335 53.3189 99.597 63.1009 94.366C72.8849 89.129 82.9199 84.385 92.9459 79.643C102.971 74.9 112.992 70.138 122.747 64.871C127.624 62.239 132.434 59.482 137.138 56.555C141.842 53.628 146.435 50.524 150.886 47.226C155.336 43.929 159.64 40.435 163.766 36.742C167.893 33.05 171.841 29.159 175.593 25.088C179.339 21.011 182.885 16.752 186.233 12.342C189.581 7.932 192.731 3.373 195.7 -1.3L196.269 -0.939003H196.27Z" fill="black"/>
<path d="M190.929 -0.939003C185.174 8.066 178.749 16.656 171.543 24.554C167.94 28.501 164.156 32.283 160.205 35.881C156.254 39.479 152.136 42.892 147.879 46.12C139.365 52.58 130.296 58.279 120.948 63.435C111.597 68.595 101.977 73.237 92.3249 77.786C82.6729 82.337 72.9799 86.801 63.477 91.649C53.975 96.491 44.6569 101.722 35.7989 107.669C31.3699 110.64 27.0569 113.785 22.895 117.12C18.732 120.454 14.7199 123.977 10.8839 127.683C7.04795 131.389 3.38695 135.277 -0.0860491 139.325C-3.56105 143.373 -6.84905 147.58 -9.95905 151.915C-6.86005 147.572 -3.58305 143.355 -0.11805 139.297C3.34595 135.239 6.99695 131.339 10.8259 127.622C14.6539 123.904 18.6589 120.368 22.8159 117.021C26.9729 113.673 31.2799 110.514 35.7049 107.529C44.5549 101.554 53.8669 96.294 63.3619 91.424C72.8589 86.548 82.543 82.057 92.181 77.481C101.819 72.907 111.42 68.243 120.744 63.066C130.065 57.892 139.099 52.182 147.574 45.717C151.811 42.487 155.908 39.073 159.837 35.476C163.766 31.88 167.528 28.101 171.108 24.157C178.267 16.267 184.647 7.69 190.359 -1.3L190.928 -0.939003H190.929Z" fill="black"/>
<path d="M185.588 -0.939003C182.808 3.41 179.875 7.661 176.771 11.786C173.667 15.909 170.398 19.912 166.938 23.742C163.483 27.577 159.86 31.259 156.077 34.771C152.295 38.283 148.355 41.624 144.281 44.79C140.207 47.957 135.999 50.949 131.688 53.781C127.377 56.614 122.963 59.287 118.478 61.832C109.508 66.926 100.252 71.487 90.9419 75.907C81.6309 80.328 72.2579 84.612 63.0189 89.175C53.7819 93.735 44.6819 98.593 35.9529 104.07C31.5889 106.807 27.3209 109.696 23.1779 112.758C19.0349 115.819 15.0199 119.053 11.1579 122.463C7.29595 125.872 3.58795 129.456 0.0489502 133.201C-3.49005 136.945 -6.85905 140.85 -10.058 144.89C-6.87005 140.841 -3.51105 136.927 0.017951 133.172C3.54695 129.417 7.24695 125.821 11.1019 122.4C14.9559 118.978 18.966 115.731 23.1029 112.657C27.2399 109.582 31.5039 106.679 35.8629 103.928C44.5829 98.423 53.6769 93.536 62.9059 88.949C72.1369 84.359 81.5009 80.049 90.7969 75.604C100.092 71.16 109.327 66.578 118.269 61.467C127.212 56.365 135.862 50.734 143.97 44.392C148.024 41.224 151.943 37.882 155.703 34.371C159.464 30.86 163.065 27.181 166.498 23.349C169.936 19.522 173.182 15.525 176.265 11.407C179.348 7.287 182.26 3.042 185.018 -1.3L185.587 -0.939003H185.588Z" fill="black"/>
<path d="M180.247 -0.939003C177.56 3.264 174.731 7.376 171.743 11.371L170.051 13.609C169.865 13.859 169.665 14.099 169.473 14.345C168.696 15.321 167.925 16.301 167.143 17.272L164.748 20.146C164.551 20.388 164.342 20.619 164.138 20.855L162.291 22.967C158.975 26.694 155.502 30.28 151.878 33.708C148.255 37.136 144.482 40.405 140.58 43.51C132.777 49.726 124.456 55.267 115.843 60.282C107.229 65.302 98.3309 69.809 89.3489 74.115C80.3669 78.426 71.3029 82.556 62.3339 86.884C53.366 91.209 44.4879 95.738 35.9159 100.807C27.3429 105.867 19.0779 111.468 11.346 117.745C7.47895 120.881 3.74595 124.182 0.163951 127.642C-3.41805 131.101 -6.84805 134.717 -10.118 138.473C-6.85805 134.708 -3.43805 131.081 0.134951 127.611C3.70795 124.141 7.43295 120.828 11.2929 117.679C19.0109 111.376 27.2659 105.749 35.8309 100.661C44.3949 95.564 53.2659 91.008 62.2249 86.655C71.1849 82.301 80.2379 78.144 89.2039 73.81C98.1699 69.48 107.046 64.953 115.631 59.917C124.216 54.886 132.502 49.334 140.266 43.114C144.148 40.006 147.9 36.737 151.502 33.309C155.104 29.882 158.557 26.298 161.85 22.575L163.685 20.465C163.888 20.23 164.096 19.999 164.291 19.757L166.67 16.886C167.447 15.916 168.212 14.936 168.984 13.962C169.175 13.717 169.373 13.477 169.558 13.227L171.238 10.992C174.203 7.003 177.011 2.897 179.677 -1.3L180.246 -0.939003H180.247Z" fill="black"/>
<path d="M174.906 -0.939003C172.309 3.124 169.578 7.103 166.701 10.973L165.614 12.418C165.251 12.899 164.894 13.385 164.516 13.855L162.275 16.694L159.971 19.482L159.682 19.83L157.61 22.223C151.245 29.47 144.275 36.184 136.795 42.27C129.319 48.363 121.345 53.826 113.076 58.772C104.806 63.724 96.2469 68.168 87.5889 72.384C78.9289 76.601 70.1679 80.6 61.4699 84.727C52.7719 88.852 44.1319 93.11 35.7299 97.812C27.3299 102.51 19.1759 107.667 11.4729 113.444C3.76695 119.213 -3.47605 125.605 -10.123 132.574C-3.49605 125.587 3.72995 119.172 11.4229 113.377C19.1129 107.576 27.257 102.391 35.6479 97.666C44.041 92.938 52.6739 88.652 61.3619 84.5C70.0509 80.347 78.7989 76.323 87.4419 72.082C96.0829 67.842 104.62 63.379 112.86 58.411C121.101 53.45 129.04 47.977 136.476 41.879C143.916 35.788 150.844 29.076 157.167 21.835L159.225 19.445L159.512 19.097L161.801 16.312L164.026 13.476C164.401 13.007 164.756 12.522 165.116 12.041L166.195 10.597C169.05 6.731 171.759 2.758 174.336 -1.3L174.905 -0.939003H174.906Z" fill="black"/>
<path d="M169.565 -0.939003C167.051 2.994 164.414 6.847 161.639 10.6L160.59 12.001C160.238 12.467 159.897 12.94 159.532 13.395L157.373 16.15L155.154 18.857C154.789 19.312 154.401 19.748 154.023 20.193L152.883 21.521C146.762 28.568 140.074 35.123 132.899 41.091C125.727 47.065 118.077 52.448 110.13 57.328C102.183 62.214 93.9439 66.603 85.5909 70.74C77.2379 74.88 68.7669 78.77 60.3319 82.729C51.8969 86.687 43.492 90.717 35.2759 95.112C31.1679 97.309 27.1079 99.596 23.1189 102.002C19.1299 104.408 15.2149 106.936 11.393 109.601C3.74895 114.926 -3.50805 120.817 -10.228 127.275C-3.52805 120.797 3.71295 114.883 11.3449 109.532C15.16 106.855 19.07 104.314 23.054 101.894C27.0379 99.475 31.0929 97.174 35.1959 94.964C43.4029 90.542 51.7989 86.485 60.2239 82.501C68.6489 78.517 77.1059 74.601 85.4409 70.439C93.7749 66.28 101.991 61.871 109.909 56.971C117.827 52.076 125.443 46.683 132.576 40.704C139.713 34.732 146.359 28.178 152.438 21.137L153.57 19.81C153.945 19.366 154.33 18.93 154.693 18.475L156.897 15.77L159.04 13.017C159.402 12.562 159.741 12.089 160.09 11.624L161.131 10.224C163.885 6.475 166.502 2.627 168.996 -1.3L169.565 -0.939003Z" fill="black"/>
<path d="M164.224 -0.939003C161.795 2.861 159.251 6.587 156.579 10.221L154.811 12.595L152.473 15.598L150.34 18.223C149.988 18.664 149.619 19.09 149.255 19.52L148.16 20.809C142.283 27.651 135.878 34.04 129.009 39.882C122.143 45.73 114.819 51.027 107.198 55.838C99.5769 60.654 91.6659 64.989 83.6269 69.051C67.546 77.182 50.9549 84.232 34.9369 92.464C26.9289 96.575 19.0659 100.983 11.514 105.887C3.96295 110.788 -3.26905 116.192 -10.03 122.141C-3.28705 116.171 3.92895 110.742 11.4679 105.816C19.0069 100.886 26.861 96.452 34.8599 92.314C50.8599 84.029 67.4329 76.925 83.4749 68.75C91.4949 64.666 99.3829 60.312 106.973 55.481C114.564 50.655 121.853 45.348 128.681 39.496C135.513 33.649 141.877 27.261 147.713 20.424L148.801 19.136C149.163 18.706 149.53 18.28 149.879 17.84L151.997 15.217L154.059 12.55L154.317 12.217L154.568 11.879L156.071 9.846C158.721 6.217 161.245 2.495 163.655 -1.3L164.224 -0.939003Z" fill="black"/>
<path d="M158.883 -0.939003C156.532 2.739 154.074 6.347 151.497 9.87L149.792 12.172L149.542 12.496L147.539 15.085C146.859 15.938 146.17 16.784 145.485 17.634C145.312 17.845 145.145 18.061 144.968 18.269L143.386 20.147C137.732 26.798 131.585 33.03 124.994 38.752C118.407 44.479 111.382 49.692 104.063 54.437C96.7439 59.186 89.1349 63.471 81.3879 67.469C65.8909 75.475 49.8479 82.33 34.2439 90.091C26.4429 93.969 18.7499 98.078 11.3119 102.619C3.87395 107.155 -3.30405 112.131 -10.071 117.625C-3.32105 112.11 3.84195 107.109 11.268 102.548C18.6939 97.981 26.3769 93.846 34.1689 89.941C49.7539 82.127 65.7769 75.219 81.2329 67.17C88.9599 63.151 96.5439 58.848 103.833 54.084C111.123 49.325 118.112 44.102 124.662 38.371C131.215 32.644 137.322 26.413 142.936 19.766L144.506 17.89C144.681 17.682 144.848 17.467 145.019 17.256L147.058 14.709L149.046 12.122L149.294 11.798L150.986 9.498C153.544 5.978 155.982 2.373 158.314 -1.3L158.883 -0.939003Z" fill="black"/>
<path d="M153.542 -0.939003C148.993 6.172 144.053 13.042 138.602 19.492C133.166 25.952 127.27 32.025 120.952 37.624C114.637 43.227 107.906 48.352 100.884 53.029C93.8619 57.709 86.5529 61.944 79.0969 65.882C71.6399 69.823 64.0369 73.472 56.4039 77.048C48.7709 80.624 41.1059 84.131 33.5209 87.805C25.9359 91.477 18.4289 95.32 11.128 99.53C3.82695 103.737 -3.26705 108.317 -10.011 113.376C-3.28405 108.295 3.79595 103.69 11.085 99.457C18.375 95.221 25.8719 91.352 33.4469 87.654C41.0219 83.954 48.6759 80.421 56.296 76.82C63.9159 73.219 71.5029 69.546 78.9389 65.585C86.3739 61.626 93.6579 57.374 100.65 52.68C107.643 47.99 114.339 42.855 120.617 37.248C126.898 31.644 132.755 25.571 138.151 19.115C143.562 12.666 148.462 5.802 152.973 -1.3L153.542 -0.939003Z" fill="black"/>
<path d="M148.201 -0.939003C143.799 5.943 139.031 12.6 133.786 18.867C128.555 25.143 122.894 31.062 116.832 36.54C110.771 42.019 104.316 47.054 97.5759 51.664C90.8379 56.279 83.8129 60.462 76.6359 64.346C69.4579 68.232 62.1259 71.821 54.7499 75.306C47.3739 78.792 39.951 82.175 32.582 85.674C25.214 89.172 17.8989 92.786 10.747 96.709C3.59595 100.629 -3.39105 104.861 -10.083 109.528C-3.40705 104.839 3.56695 100.582 10.707 96.636C17.847 92.688 25.153 89.046 32.5099 85.523C39.868 81.998 47.2799 78.589 54.6419 75.079C62.0039 71.57 69.3189 67.957 76.4759 64.051C83.6319 60.146 90.6299 55.946 97.3389 51.318C104.049 46.695 110.469 41.65 116.494 36.167C122.519 30.684 128.141 24.765 133.334 18.491C138.539 12.225 143.268 5.574 147.632 -1.3L148.201 -0.939003Z" fill="black"/>
<path d="M142.86 -0.939003C138.607 5.711 134.013 12.151 128.974 18.232C123.948 24.32 118.523 30.081 112.716 35.43C106.909 40.779 100.733 45.72 94.2759 50.257C87.8209 54.797 81.0899 58.934 74.1949 62.762C67.2999 66.594 60.2469 70.128 53.1349 73.53C46.0229 76.934 38.853 80.208 31.714 83.549C24.575 86.889 17.4669 90.299 10.485 93.957C3.50395 97.614 -3.35005 101.523 -9.96205 105.816C-3.36505 101.5 3.47595 97.565 10.446 93.883C17.416 90.199 24.5149 86.763 31.6419 83.397C38.77 80.031 45.9289 76.731 53.0259 73.303C60.1219 69.876 67.1579 66.32 74.0309 62.468C80.9039 58.62 87.6089 54.466 94.0339 49.913C100.46 45.364 106.603 40.413 112.373 35.06C118.143 29.706 123.53 23.944 128.518 17.858C133.519 11.779 138.075 5.344 142.291 -1.3L142.86 -0.939003Z" fill="black"/>
<path d="M137.52 -0.939003C133.405 5.495 128.972 11.733 124.124 17.637C119.287 23.548 114.08 29.159 108.508 34.383C102.938 39.609 97.0179 44.457 90.8249 48.921C84.6329 53.388 78.173 57.473 71.5449 61.255C64.9159 65.037 58.1249 68.522 51.264 71.856C44.403 75.191 37.4729 78.376 30.556 81.586C23.639 84.796 16.735 88.035 9.92695 91.472C3.11995 94.907 -3.59005 98.542 -10.103 102.511C-3.60505 98.519 3.09295 94.858 9.88895 91.397C16.6849 87.935 23.5789 84.67 30.485 81.434C37.3909 78.198 44.308 74.987 51.153 71.629C57.9979 68.272 64.771 64.765 71.3769 60.963C77.9819 57.162 84.4159 53.06 90.5779 48.581C96.741 44.104 102.627 39.247 108.162 34.016C113.698 28.787 118.868 23.175 123.668 17.265C128.477 11.361 132.872 5.128 136.95 -1.3L137.519 -0.939003H137.52Z" fill="black"/>
<path d="M132.179 -0.939003C128.207 5.273 123.939 11.301 119.284 17.023C114.639 22.75 109.653 28.203 104.32 33.295C98.9899 38.391 93.3309 43.137 87.4069 47.523C81.4839 51.911 75.3009 55.939 68.9489 59.671C62.5959 63.404 56.075 66.839 49.4769 70.109C42.8779 73.379 36.2009 76.484 29.5189 79.577C22.8379 82.67 16.153 85.754 9.53795 88.986C2.92395 92.217 -3.62005 95.598 -10.008 99.26C-3.63405 95.574 2.89795 92.167 9.50095 88.91C16.1039 85.652 22.7789 82.542 29.4479 79.424C36.117 76.306 42.7809 73.176 49.3639 69.883C55.9459 66.59 62.448 63.133 68.7769 59.381C75.1059 55.63 81.2629 51.586 87.1549 47.185C93.0479 42.787 98.6749 38.031 103.969 32.931C109.267 27.834 114.217 22.379 118.824 16.653C123.442 10.932 127.673 4.907 131.609 -1.3L132.178 -0.939003H132.179Z" fill="black"/>
<path d="M126.838 -0.939003C122.999 5.065 118.884 10.897 114.41 16.446C109.944 21.999 105.162 27.302 100.05 32.267C94.9429 37.237 89.5249 41.884 83.8519 46.192C78.1799 50.503 72.2549 54.474 66.1609 58.156C60.0679 61.842 53.8029 65.234 47.4529 68.448C41.102 71.663 34.6649 74.701 28.2109 77.697C21.7569 80.693 15.285 83.65 8.86195 86.712C2.43995 89.773 -3.93405 92.941 -10.185 96.342C-3.94805 92.916 2.41495 89.723 8.82595 86.636C15.2369 83.548 21.6979 80.565 28.1399 77.544C34.5819 74.523 41.0049 71.461 47.3379 68.222C53.6709 64.984 59.9159 61.571 65.9859 57.867C72.0569 54.166 77.9539 50.179 83.5959 45.856C89.2389 41.536 94.6239 36.879 99.6969 31.904C104.775 26.933 109.52 21.629 113.95 16.076C118.387 10.529 122.465 4.699 126.268 -1.3L126.837 -0.939003H126.838Z" fill="black"/>
<path d="M121.497 -0.939003C117.796 4.849 113.84 10.478 109.55 15.846C105.268 21.218 100.694 26.361 95.8089 31.191C90.9299 36.027 85.7589 40.566 80.3429 44.789C74.9289 49.014 69.2719 52.922 63.4449 56.551C57.6189 60.183 51.6229 63.534 45.533 66.694C39.443 69.856 33.2589 72.832 27.0459 75.741C14.6199 81.555 2.07195 87.116 -10.11 93.433C2.04595 87.066 14.5749 81.452 26.9739 75.588C33.1739 72.655 39.3429 69.655 45.4159 66.47C51.4889 63.287 57.4639 59.915 63.2659 56.265C69.0689 52.618 74.6989 48.694 80.0829 44.457C85.4679 40.222 90.6069 35.673 95.452 30.832C100.303 25.995 104.841 20.851 109.088 15.478C113.342 10.111 117.262 4.484 120.927 -1.3L121.496 -0.939003H121.497Z" fill="black"/>
<path d="M116.156 -0.939003C112.582 4.631 108.765 10.045 104.67 15.243L102.347 18.151C102.088 18.473 101.813 18.783 101.547 19.099L99.1339 21.934C98.8659 22.249 98.6009 22.567 98.3189 22.87L94.9849 26.546L91.5399 30.118C86.88 34.815 81.9499 39.243 76.7869 43.377C71.6249 47.513 66.2309 51.356 60.6699 54.931C55.1079 58.507 49.3809 61.821 43.5479 64.929C37.7159 68.041 31.7859 70.962 25.817 73.794C13.878 79.46 1.77795 84.779 -10.055 90.664C1.75295 84.729 13.8319 79.357 25.7439 73.642C31.6999 70.785 37.615 67.84 43.428 64.706C49.243 61.576 54.9489 58.242 60.4869 54.648C66.0249 51.055 71.3909 47.197 76.5229 43.049C81.6559 38.902 86.5539 34.466 91.1809 29.763L94.6009 26.187L97.9089 22.508C98.1889 22.205 98.451 21.887 98.7169 21.572L101.11 18.737C101.374 18.42 101.646 18.11 101.903 17.788L104.207 14.879C108.266 9.68 112.048 4.267 115.586 -1.3L116.155 -0.939003H116.156Z" fill="black"/>
<path d="M110.815 -0.939003C107.375 4.423 103.711 9.64 99.7889 14.66C95.8659 19.677 91.6959 24.506 87.2419 29.059C82.7959 33.62 78.0989 37.934 73.1799 41.977C68.2619 46.021 63.1239 49.794 57.8199 53.312C52.5159 56.83 47.0489 60.099 41.4729 63.163C35.8969 66.228 30.2179 69.1 24.4909 71.867C13.0359 77.402 1.38795 82.518 -10.074 88.033C1.36395 82.468 12.991 77.299 24.417 71.715C30.13 68.924 35.7929 66.028 41.3499 62.942C46.9069 59.856 52.3519 56.567 57.632 53.032C62.9119 49.497 68.0219 45.709 72.9109 41.653C77.7999 37.598 82.466 33.276 86.8779 28.709C91.299 24.149 95.4339 19.317 99.3219 14.299C103.211 9.276 106.841 4.059 110.246 -1.3L110.815 -0.939003Z" fill="black"/>
<path d="M105.474 -0.939003C102.169 4.215 98.656 9.235 94.906 14.074C91.155 18.911 87.1769 23.576 82.9349 27.991C78.7009 32.412 74.2329 36.607 69.5559 40.554C64.8789 44.501 59.9949 48.199 54.9469 51.655C49.8999 55.113 44.6929 58.331 39.3759 61.353C34.0569 64.372 28.6329 67.198 23.1519 69.907C12.1899 75.326 1.00595 80.27 -10.061 85.463C0.981951 80.219 12.1429 75.223 23.0769 69.756C28.5429 67.024 33.951 64.174 39.2509 61.134C44.548 58.091 49.7339 54.852 54.7559 51.377C59.7789 47.903 64.6359 44.191 69.283 40.232C73.9309 36.274 78.3669 32.069 82.5689 27.642C86.7779 23.221 90.7219 18.552 94.4389 13.713C98.1549 8.872 101.634 3.852 104.905 -1.3L105.474 -0.939003Z" fill="black"/>
<path d="M100.133 -0.939003C96.9579 4.013 93.5909 8.842 90.0059 13.505C86.4199 18.167 82.6259 22.671 78.5869 26.947C74.5549 31.229 70.3059 35.306 65.8599 39.153C61.4149 43.002 56.7729 46.621 51.9729 50.014C47.1739 53.408 42.2179 56.577 37.1529 59.555C32.0859 62.531 26.9089 65.314 21.6709 67.971C11.1929 73.288 0.469951 78.091 -10.193 83.015C0.445951 78.04 11.146 73.185 21.594 67.821C26.8169 65.139 31.9769 62.334 37.0239 59.337C42.0689 56.338 47.0029 53.15 51.777 49.739C56.5519 46.329 61.1659 42.696 65.5819 38.835C69.9989 34.975 74.2159 30.89 78.2159 26.601C82.2229 22.319 85.9839 17.81 89.5359 13.145C93.0889 8.48 96.4219 3.651 99.5639 -1.3L100.133 -0.939003Z" fill="black"/>
<path d="M94.7919 -0.939003C91.7499 3.806 88.5309 8.439 85.1139 12.921C81.6949 17.401 78.0869 21.74 74.2519 25.871C70.424 30.007 66.396 33.958 62.184 37.7C57.9719 41.443 53.5759 44.976 49.0289 48.299C44.4819 51.623 39.7829 54.737 34.9749 57.668C30.167 60.599 25.2439 63.337 20.257 65.948C10.28 71.169 0.03895 75.851 -10.192 80.54C0.0149508 75.801 10.233 71.067 20.1779 65.799C25.1489 63.165 30.054 60.405 34.8419 57.453C39.63 54.502 44.306 51.369 48.8279 48.028C53.351 44.688 57.7189 41.14 61.9019 37.386C66.0849 33.632 70.0819 29.672 73.8789 25.529C77.6819 21.391 81.2579 17.048 84.6429 12.565C88.0289 8.079 91.2139 3.445 94.2229 -1.3L94.7919 -0.939003Z" fill="black"/>
<path d="M89.4509 -0.939003C86.5479 3.591 83.4839 8.017 80.2389 12.309L78.4029 14.714L77.7729 15.501L75.8769 17.86C75.6669 18.123 75.4569 18.385 75.2369 18.64L72.632 21.721L69.952 24.737C66.3329 28.717 62.5329 32.531 58.5609 36.157C54.5899 39.784 50.4469 43.221 46.1599 46.466C41.8729 49.711 37.4429 52.764 32.903 55.641C28.3649 58.521 23.7099 61.214 18.9879 63.777C9.54095 68.903 -0.188049 73.479 -9.95005 77.961C-0.212049 73.428 9.49195 68.802 18.9069 63.629C23.6129 61.043 28.249 58.328 32.7669 55.428C37.2859 52.531 41.6939 49.46 45.9559 46.198C50.2179 42.937 54.3329 39.485 58.2759 35.847C62.2189 32.209 65.99 28.386 69.577 24.398L72.2339 21.377L74.8149 18.292C75.033 18.037 75.2409 17.774 75.4489 17.511L77.327 15.15L77.951 14.362L79.7689 11.955C82.9799 7.659 86.0109 3.23 88.8819 -1.3L89.4509 -0.939003Z" fill="black"/>
<path d="M84.1099 -0.939003C78.5579 7.722 72.4169 16.017 65.5559 23.688C62.1269 27.522 58.5309 31.207 54.7759 34.721C51.0219 38.236 47.109 41.58 43.059 44.747C34.9599 51.086 26.3119 56.699 17.3529 61.728C8.39595 66.769 -0.85405 71.26 -10.172 75.583C-0.878049 71.209 8.34595 66.668 17.27 61.581C26.1959 56.507 34.8019 50.852 42.8509 44.482C46.8759 41.299 50.7619 37.941 54.4869 34.414C58.2129 30.888 61.7789 27.194 65.1769 23.352C71.978 15.666 78.0539 7.363 83.5409 -1.3L84.1099 -0.939003Z" fill="black"/>
<path d="M78.77 -0.939003C73.506 7.274 67.7119 15.157 61.2759 22.491C54.8419 29.824 47.7949 36.617 40.2219 42.758C32.6509 48.905 24.57 54.405 16.167 59.337C7.76695 64.28 -0.933049 68.687 -9.73305 72.86C-0.957049 68.636 7.71595 64.18 16.0809 59.192C24.4489 54.215 32.4879 48.675 40.0089 42.497C47.5329 36.324 54.5219 29.508 60.895 22.159C67.27 14.809 72.9999 6.917 78.1999 -1.3L78.7689 -0.939003H78.77Z" fill="black"/>
<path d="M73.4289 -0.939003C68.4089 6.895 62.9059 14.427 56.8229 21.47C50.7399 28.511 44.1009 35.069 36.9699 41.039C29.841 47.012 22.2339 52.403 14.3039 57.249C6.37695 62.105 -1.85205 66.444 -10.205 70.511C-1.87805 66.394 6.32295 62.006 14.2149 57.106C22.1099 52.216 29.6729 46.786 36.7519 40.782C43.8329 34.781 50.416 28.199 56.4389 21.142C62.4619 14.081 67.9019 6.539 72.8589 -1.3L73.4279 -0.939003H73.4289Z" fill="black"/>
<path d="M68.0879 -0.939003C63.3449 6.464 58.1689 13.595 52.4809 20.301C46.7909 27.003 40.6049 33.283 33.9679 39.044C27.3329 44.807 20.2589 50.056 12.8659 54.796C5.47595 59.545 -2.21305 63.809 -10.046 67.771C-2.23805 63.759 5.42095 59.447 12.774 54.655C20.1309 49.871 27.16 44.584 33.7449 38.79C40.332 32.998 46.4609 26.694 52.0929 19.975C57.7229 13.252 62.8369 6.11 67.5179 -1.3L68.0869 -0.939003H68.0879Z" fill="black"/>
<path d="M62.7469 -0.939003C58.2859 6.024 53.4409 12.744 48.1489 19.099C42.8519 25.448 37.1189 31.432 30.9769 36.964C24.8369 42.497 18.299 47.583 11.452 52.204C4.60795 56.832 -2.52705 61.014 -9.82105 64.88C-2.55305 60.964 4.55095 56.735 11.357 52.064C18.166 47.401 24.66 42.278 30.75 36.714C36.841 31.152 42.52 25.143 47.7589 18.776C52.993 12.404 57.7779 5.671 62.1769 -1.3L62.7459 -0.939003H62.7469Z" fill="black"/>
<path d="M57.4059 -0.939003C53.2289 5.582 48.7119 11.889 43.809 17.883C38.9 23.872 33.6089 29.547 27.9549 34.833C22.3009 40.119 16.291 45.021 9.98795 49.507C3.68795 53.998 -2.89005 58.088 -9.63705 61.863C-2.91705 58.038 3.62795 53.902 9.88995 49.37C16.1549 44.843 22.1199 39.905 27.7239 34.588C33.3289 29.272 38.5649 23.572 43.4169 17.564C48.2619 11.55 52.7189 5.231 56.8359 -1.3L57.4049 -0.939003H57.4059Z" fill="black"/>
<path d="M52.0649 -0.939003C48.145 5.179 43.9269 11.107 39.3709 16.766C34.8119 22.422 29.9139 27.804 24.6929 32.852C19.4729 37.9 13.934 42.616 8.12095 46.962C2.31095 51.313 -3.76105 55.305 -10.006 58.996C-3.78905 55.257 2.24895 51.219 8.01995 46.828C13.7939 42.441 19.2879 37.689 24.459 32.611C29.6299 27.532 34.4739 22.125 38.9769 16.45C43.4759 10.771 47.6359 4.829 51.4959 -1.3L52.0649 -0.939003Z" fill="black"/>
<path d="M46.7239 -0.939003C43.0789 4.732 39.1799 10.24 34.9939 15.522C30.8089 20.804 26.3369 25.859 21.5799 30.63C16.8249 35.402 11.7859 39.889 6.50595 44.067C1.22695 48.247 -4.29105 52.119 -9.98305 55.711C-4.32205 52.072 1.16195 48.155 6.40095 43.935C11.6409 39.716 16.6339 35.195 21.3399 30.393C26.0469 25.592 30.4669 20.513 34.5959 15.21C38.7269 9.907 42.5689 4.383 46.1549 -1.3L46.7239 -0.939003Z" fill="black"/>
<path d="M41.3829 -0.939003C38.0359 4.269 34.4739 9.338 30.6719 14.221C26.8709 19.104 22.8279 23.8 18.545 28.264C14.262 32.728 9.73795 36.959 4.99995 40.932C0.262951 44.906 -4.68805 48.623 -9.80405 52.091C-4.72005 48.577 0.193951 44.817 4.89095 40.804C9.58795 36.792 14.0669 32.526 18.301 28.032C22.5359 23.538 26.5259 18.817 30.2719 13.913C34.0189 9.008 37.5249 3.921 40.8139 -1.3L41.3829 -0.939003Z" fill="black"/>
<path d="M36.042 -0.939003C32.993 3.804 29.7649 8.432 26.339 12.909C22.914 17.386 19.2899 21.711 15.466 25.849C11.642 29.988 7.61695 33.939 3.40695 37.681C-0.802049 41.423 -5.19605 44.955 -9.74305 48.275C-5.23005 44.91 -0.874049 41.336 3.29395 37.555C7.46195 33.775 11.4419 29.79 15.2169 25.621C18.9929 21.453 22.5639 17.102 25.9359 12.603C29.3089 8.105 32.4809 3.458 35.4729 -1.3L36.042 -0.939003Z" fill="black"/>
<path d="M30.701 -0.939003C25.216 7.593 19.1389 15.752 12.3979 23.326C9.02895 27.114 5.49695 30.755 1.81095 34.231C-1.87505 37.708 -5.71505 41.019 -9.69005 44.157C-5.75005 40.975 -1.94905 37.623 1.69395 34.109C5.33795 30.596 8.82395 26.921 12.1439 23.103C18.7889 15.469 24.7589 7.266 30.132 -1.3L30.701 -0.939003Z" fill="black"/>
<path d="M25.36 -0.939003C20.483 6.64 15.1399 13.921 9.27795 20.76C3.41895 27.601 -2.96205 33.991 -9.80505 39.834C-3.03405 33.905 3.25895 27.442 9.02095 20.542C14.787 13.644 20.024 6.315 24.791 -1.3L25.36 -0.939003Z" fill="black"/>
<path d="M20.02 -0.939003C15.783 5.635 11.195 11.985 6.21995 18.015C1.24695 24.046 -4.11405 29.754 -9.84005 35.065C-4.19005 29.672 1.08295 23.893 5.95895 17.802C10.837 11.712 15.3209 5.314 19.4499 -1.3L20.0189 -0.939003H20.02Z" fill="black"/>
<path d="M14.6789 -0.939003C11.0969 4.605 7.26595 9.989 3.16295 15.154C-0.939049 20.32 -5.31405 25.267 -9.95605 29.946C-5.39405 25.188 -1.10905 20.172 2.89695 14.946C6.90395 9.721 10.6329 4.287 14.1089 -1.3L14.6779 -0.939003H14.6789Z" fill="black"/>
<path d="M9.33795 -0.939003C6.40995 3.576 3.31695 7.982 0.0469503 12.251C-3.22405 16.519 -6.67205 20.649 -10.3 24.613C-6.75605 20.575 -3.39805 16.377 -0.22305 12.049C2.95195 7.72 5.94395 3.261 8.76795 -1.3L9.33695 -0.939003H9.33795Z" fill="black"/>
<path d="M3.99695 -0.939003C-0.192049 5.463 -4.71505 11.643 -9.60005 17.517C-4.89005 11.502 -0.559049 5.203 3.42695 -1.3L3.99595 -0.939003H3.99695Z" fill="black"/>
<path d="M-1.34405 -0.939003C-4.04705 3.118 -6.88305 7.083 -9.86105 10.934C-7.06405 6.95 -4.41905 2.865 -1.91405 -1.3L-1.34505 -0.939003H-1.34405Z" fill="black"/>
<path d="M-6.68505 -0.939003L-10.22 3.859L-7.25405 -1.3L-6.68505 -0.939003Z" fill="black"/>
</svg>
