<svg width="764" height="738" viewBox="0 0 764 738" fill="none" xmlns="http://www.w3.org/2000/svg">
<circle cx="342.58" cy="331.548" r="2.52356" transform="rotate(-36 342.58 331.548)" fill="black"/>
<circle cx="321.348" cy="364.239" r="2.52356" transform="rotate(-72 321.348 364.239)" fill="black"/>
<circle cx="323.399" cy="403.166" r="2.52356" transform="rotate(-108 323.399 403.166)" fill="black"/>
<circle cx="347.902" cy="433.458" r="2.52356" transform="rotate(-144 347.902 433.458)" fill="black"/>
<circle cx="385.563" cy="443.566" r="2.52356" transform="rotate(180 385.563 443.566)" fill="black"/>
<circle cx="421.944" cy="429.591" r="2.52356" transform="rotate(144 421.944 429.591)" fill="black"/>
<circle cx="443.184" cy="396.909" r="2.52356" transform="rotate(108 443.184 396.909)" fill="black"/>
<circle cx="441.151" cy="357.983" r="2.52356" transform="rotate(72 441.151 357.983)" fill="black"/>
<circle cx="416.622" cy="327.681" r="2.52356" transform="rotate(36 416.622 327.681)" fill="black"/>
<circle cx="378.984" cy="317.598" r="2.52356" fill="black"/>
<circle cx="320.833" cy="327.082" r="4.28609" transform="rotate(-47.5036 320.833 327.082)" fill="black"/>
<circle cx="301.128" cy="373.395" r="4.28609" transform="rotate(-83.5036 301.128 373.395)" fill="black"/>
<circle cx="312.425" cy="422.441" r="4.28609" transform="rotate(-119.504 312.425 422.441)" fill="black"/>
<circle cx="350.345" cy="455.497" r="4.28609" transform="rotate(-155.504 350.345 455.497)" fill="black"/>
<circle cx="400.496" cy="459.946" r="4.28609" transform="rotate(168.496 400.496 459.946)" fill="black"/>
<circle cx="443.644" cy="434.056" r="4.28609" transform="rotate(132.496 443.644 434.056)" fill="black"/>
<circle cx="463.361" cy="387.752" r="4.28609" transform="rotate(96.4964 463.361 387.752)" fill="black"/>
<circle cx="452.089" cy="338.702" r="4.28609" transform="rotate(60.4964 452.089 338.702)" fill="black"/>
<circle cx="414.131" cy="305.641" r="4.28609" transform="rotate(24.4964 414.131 305.641)" fill="black"/>
<circle cx="364.017" cy="301.217" r="4.28609" transform="rotate(-11.5036 364.017 301.217)" fill="black"/>
<circle cx="295.49" cy="334.042" r="5.9292" transform="rotate(-61.2791 295.49 334.042)" fill="black"/>
<circle cx="284.708" cy="393.907" r="5.9292" transform="rotate(-97.2791 284.708 393.907)" fill="black"/>
<circle cx="311.192" cy="448.668" r="5.9292" transform="rotate(-133.279 311.192 448.668)" fill="black"/>
<circle cx="364.753" cy="477.438" r="5.9292" transform="rotate(-169.279 364.753 477.438)" fill="black"/>
<circle cx="425.045" cy="469.212" r="5.9292" transform="rotate(154.721 425.045 469.212)" fill="black"/>
<circle cx="468.936" cy="427.116" r="5.9292" transform="rotate(118.721 468.936 427.116)" fill="black"/>
<circle cx="479.735" cy="367.257" r="5.9292" transform="rotate(82.7209 479.735 367.257)" fill="black"/>
<circle cx="453.28" cy="312.485" r="5.9292" transform="rotate(46.7209 453.28 312.485)" fill="black"/>
<circle cx="399.673" cy="283.721" r="5.9292" transform="rotate(10.7209 399.673 283.721)" fill="black"/>
<circle cx="339.432" cy="291.965" r="5.9292" transform="rotate(-25.2791 339.432 291.965)" fill="black"/>
<circle cx="269.415" cy="350.626" r="7.94921" transform="rotate(-75.5851 269.415 350.626)" fill="black"/>
<circle cx="273.345" cy="422.637" r="7.94921" transform="rotate(-111.585 273.345 422.637)" fill="black"/>
<circle cx="318.871" cy="478.57" r="7.94921" transform="rotate(-147.585 318.871 478.57)" fill="black"/>
<circle cx="388.529" cy="497.116" r="7.94921" transform="rotate(176.415 388.529 497.116)" fill="black"/>
<circle cx="455.837" cy="471.14" r="7.94921" transform="rotate(140.415 455.837 471.14)" fill="black"/>
<circle cx="494.96" cy="410.575" r="7.94921" transform="rotate(104.415 494.96 410.575)" fill="black"/>
<circle cx="491.053" cy="338.565" r="7.94921" transform="rotate(68.4149 491.053 338.565)" fill="black"/>
<circle cx="445.556" cy="282.612" r="7.94921" transform="rotate(32.4149 445.556 282.612)" fill="black"/>
<circle cx="375.847" cy="264.085" r="7.94921" transform="rotate(-3.58511 375.847 264.085)" fill="black"/>
<circle cx="308.605" cy="290.068" r="7.94921" transform="rotate(-39.5851 308.605 290.068)" fill="black"/>
<circle cx="247.753" cy="376.766" r="10.1288" transform="rotate(-89.7132 247.753 376.766)" fill="black"/>
<circle cx="271.165" cy="456.51" r="10.1288" transform="rotate(-125.713 271.165 456.51)" fill="black"/>
<circle cx="336.995" cy="507.239" r="10.1288" transform="rotate(-161.713 336.995 507.239)" fill="black"/>
<circle cx="420.03" cy="509.664" r="10.1288" transform="rotate(162.287 420.03 509.664)" fill="black"/>
<circle cx="488.68" cy="462.762" r="10.1288" transform="rotate(126.287 488.68 462.762)" fill="black"/>
<circle cx="516.585" cy="384.498" r="10.1288" transform="rotate(90.2868 516.585 384.498)" fill="black"/>
<circle cx="493.199" cy="304.75" r="10.1288" transform="rotate(54.2868 493.199 304.75)" fill="black"/>
<circle cx="427.397" cy="253.988" r="10.1288" transform="rotate(18.2868 427.397 253.988)" fill="black"/>
<circle cx="344.31" cy="251.601" r="10.1288" transform="rotate(-17.7132 344.31 251.601)" fill="black"/>
<circle cx="275.735" cy="298.492" r="10.1288" transform="rotate(-53.7132 275.735 298.492)" fill="black"/>
<circle cx="231.607" cy="409.477" r="12.3878" transform="rotate(-102.898 231.607 409.477)" fill="black"/>
<circle cx="277.258" cy="492.381" r="12.3878" transform="rotate(-138.898 277.258 492.381)" fill="black"/>
<circle cx="362.945" cy="532.556" r="12.3878" transform="rotate(-174.898 362.945 532.556)" fill="black"/>
<circle cx="455.832" cy="514.889" r="12.3878" transform="rotate(149.102 455.832 514.889)" fill="black"/>
<circle cx="520.674" cy="445.844" r="12.3878" transform="rotate(113.102 520.674 445.844)" fill="black"/>
<circle cx="532.418" cy="351.98" r="12.3878" transform="rotate(77.1016 532.418 351.98)" fill="black"/>
<circle cx="486.824" cy="269.052" r="12.3878" transform="rotate(41.1016 486.824 269.052)" fill="black"/>
<circle cx="401.178" cy="228.789" r="12.3878" transform="rotate(5.10157 401.178 228.789)" fill="black"/>
<circle cx="308.194" cy="246.568" r="12.3878" transform="rotate(-30.8984 308.194 246.568)" fill="black"/>
<circle cx="243.517" cy="315.548" r="12.3878" transform="rotate(-66.8984 243.517 315.548)" fill="black"/>
<circle cx="224.234" cy="452.582" r="14.0156" transform="rotate(-116.554 224.234 452.582)" fill="black"/>
<circle cx="296.506" cy="531.524" r="14.0156" transform="rotate(-152.554 296.506 531.524)" fill="black"/>
<circle cx="401.389" cy="552.797" r="14.0156" transform="rotate(171.446 401.389 552.797)" fill="black"/>
<circle cx="498.745" cy="508.696" r="14.0156" transform="rotate(135.446 498.745 508.696)" fill="black"/>
<circle cx="551.653" cy="415.512" r="14.0156" transform="rotate(99.4455 551.653 415.512)" fill="black"/>
<circle cx="539.514" cy="309.254" r="14.0156" transform="rotate(63.4455 539.514 309.254)" fill="black"/>
<circle cx="467.326" cy="230.252" r="14.0156" transform="rotate(27.4455 467.326 230.252)" fill="black"/>
<circle cx="362.473" cy="208.819" r="14.0156" transform="rotate(-8.55449 362.473 208.819)" fill="black"/>
<circle cx="265.004" cy="253.14" r="14.0156" transform="rotate(-44.5545 265.004 253.14)" fill="black"/>
<circle cx="212.34" cy="346.152" r="14.0156" transform="rotate(-80.5545 212.34 346.152)" fill="black"/>
<circle cx="230.202" cy="499.797" r="15.2696" transform="rotate(-129.957 230.202 499.797)" fill="black"/>
<circle cx="329.029" cy="566.245" r="15.2696" transform="rotate(-165.957 329.029 566.245)" fill="black"/>
<circle cx="448.022" cy="561.785" r="15.2696" transform="rotate(158.043 448.022 561.785)" fill="black"/>
<circle cx="541.756" cy="488.597" r="15.2696" transform="rotate(122.043 541.756 488.597)" fill="black"/>
<circle cx="574.57" cy="373.975" r="15.2696" transform="rotate(86.0432 574.57 373.975)" fill="black"/>
<circle cx="533.618" cy="262.243" r="15.2696" transform="rotate(50.0432 533.618 262.243)" fill="black"/>
<circle cx="434.865" cy="195.712" r="15.2696" transform="rotate(14.0432 434.865 195.712)" fill="black"/>
<circle cx="315.863" cy="199.99" r="15.2696" transform="rotate(-21.9568 315.863 199.99)" fill="black"/>
<circle cx="222.064" cy="273.443" r="15.2696" transform="rotate(-57.9568 222.064 273.443)" fill="black"/>
<circle cx="189.468" cy="387.82" r="15.2696" transform="rotate(-93.9568 189.468 387.82)" fill="black"/>
<circle cx="248.134" cy="548.392" r="16.6" transform="rotate(-143.016 248.134 548.392)" fill="black"/>
<circle cx="372.046" cy="595.062" r="16.6" transform="rotate(-179.016 372.046 595.062)" fill="black"/>
<circle cx="499.674" cy="559.85" r="16.6" transform="rotate(144.984 499.674 559.85)" fill="black"/>
<circle cx="582.417" cy="456.715" r="16.6" transform="rotate(108.984 582.417 456.715)" fill="black"/>
<circle cx="588.657" cy="324.3" r="16.6" transform="rotate(72.9843 588.657 324.3)" fill="black"/>
<circle cx="515.809" cy="213.848" r="16.6" transform="rotate(36.9843 515.809 213.848)" fill="black"/>
<circle cx="391.956" cy="167.071" r="16.6" transform="rotate(0.984322 391.956 167.071)" fill="black"/>
<circle cx="264.273" cy="202.089" r="16.6" transform="rotate(-35.0157 264.273 202.089)" fill="black"/>
<circle cx="181.527" cy="305.526" r="16.6" transform="rotate(-71.0157 181.527 305.526)" fill="black"/>
<circle cx="175.462" cy="437.621" r="16.6" transform="rotate(-107.016 175.462 437.621)" fill="black"/>
<circle cx="281.13" cy="592.76" r="18.1633" transform="rotate(-156.173 281.13 592.76)" fill="black"/>
<circle cx="424.775" cy="611.622" r="18.1633" transform="rotate(167.827 424.775 611.622)" fill="black"/>
<circle cx="551.986" cy="542.32" r="18.1633" transform="rotate(131.827 551.986 542.32)" fill="black"/>
<circle cx="614.458" cy="411.828" r="18.1633" transform="rotate(95.8272 614.458 411.828)" fill="black"/>
<circle cx="588.215" cy="268.862" r="18.1633" transform="rotate(59.8272 588.215 268.862)" fill="black"/>
<circle cx="483.002" cy="169.264" r="18.1633" transform="rotate(23.8272 483.002 169.264)" fill="black"/>
<circle cx="339.394" cy="150.661" r="18.1633" transform="rotate(-12.1728 339.394 150.661)" fill="black"/>
<circle cx="212.119" cy="219.846" r="18.1633" transform="rotate(-48.1728 212.119 219.846)" fill="black"/>
<circle cx="149.631" cy="350.51" r="18.1633" transform="rotate(-84.1728 149.631 350.51)" fill="black"/>
<circle cx="176.112" cy="492.838" r="18.1633" transform="rotate(-120.173 176.112 492.838)" fill="black"/>
</svg>
