<svg width="21" height="19" viewBox="0 0 21 19" fill="none" xmlns="http://www.w3.org/2000/svg">
<path fill-rule="evenodd" clip-rule="evenodd" d="M19.9944 0.485169C19.9376 0.556237 19.7954 0.748122 19.6817 0.918687C19.4259 1.30246 18.8858 1.80704 18.2755 2.21125C17.8135 2.52395 17.6714 2.70162 17.7638 2.85086C17.8846 3.04985 18.6166 2.73004 19.2482 2.21125C19.4401 2.05489 19.6036 1.92697 19.6249 1.92697C19.7173 1.92697 19.0777 2.97878 18.6868 3.46827C17.905 4.44901 16.7688 5.31516 15.4185 5.96899C14.5586 6.3883 13.7351 6.68678 11.9015 7.26155C11.1411 7.49607 10.1968 7.84431 9.80588 8.02909C8.66879 8.57632 8.25748 8.93876 7.28384 10.2313C7.18435 10.3592 7.14171 10.3664 6.75083 10.2953C6.24624 10.21 5.32324 10.2669 4.84708 10.4161C3.09969 10.9491 1.74939 12.6325 1.1382 15.0267C0.832603 16.2348 0.754424 17.6624 0.967629 18.0675C1.01027 18.1386 1.10266 18.1954 1.17373 18.1954C1.30165 18.1954 1.31587 18.1457 1.31587 17.5985C1.31587 17.2715 1.37983 16.6319 1.458 16.1851C1.96259 13.2366 3.34753 11.2902 5.2655 10.8354C5.70612 10.7359 6.86365 10.7217 6.96314 10.8212C6.97736 10.8354 6.94182 11.006 6.87786 11.1979C6.79258 11.4537 6.75705 11.8161 6.75705 12.5117C6.75705 13.3432 6.77837 13.528 6.9205 13.8754C7.27585 14.7921 7.8444 15.3456 8.48312 15.4095C8.95218 15.4522 9.14406 15.3953 9.44965 15.1253C9.89739 14.7344 10.0182 14.4217 10.0182 13.6408C10.0182 13.0012 10.004 12.9373 9.74814 12.4185C9.42833 11.7717 8.81714 11.1259 8.19974 10.7848C7.97232 10.664 7.78043 10.536 7.78043 10.5147C7.78043 10.3939 8.52665 9.50554 8.86067 9.25058C9.64243 8.61807 10.2456 8.36222 12.6122 7.60978C15.6033 6.65747 16.9669 5.94056 18.367 4.55473C19.0279 3.9009 19.4756 3.32524 19.8656 2.61545L20.0504 2.26721L20.1001 2.76469C20.157 3.35456 20.3915 3.87336 20.6189 3.90178C20.8393 3.93732 20.8748 3.73833 20.7398 3.12714C20.6829 2.83576 20.6118 2.1535 20.5905 1.60716C20.5692 1.05994 20.5195 0.555349 20.4839 0.484281C20.4484 0.420319 20.3489 0.363464 20.2565 0.363464C20.1641 0.363464 20.0504 0.420319 19.9935 0.484281L19.9944 0.485169ZM7.95988 11.2272C8.46447 11.5114 9.0259 12.144 9.29508 12.7045C9.70727 13.5715 9.55093 14.5016 8.95395 14.8286C8.73364 14.9494 8.70521 14.9494 8.39251 14.8286C7.83107 14.6154 7.46862 14.0468 7.31227 13.1238C7.25542 12.8111 7.22699 12.3989 7.25541 12.1999C7.30516 11.7593 7.49705 11.0202 7.56101 11.0202C7.58233 11.0202 7.76711 11.1126 7.95899 11.2263L7.95988 11.2272Z" fill="black"/>
</svg>
