<svg width="1251" height="1094" viewBox="0 0 1251 1094" fill="none" xmlns="http://www.w3.org/2000/svg">
<g opacity="0.5">
<path d="M770.571 531.972C753.914 519.879 745.103 505.451 751.619 484.251C773.742 412.717 847.795 353.683 832.702 274.859C824.898 234.388 790.943 198.57 742.565 170.901C513.725 40.4102 298.287 92.3949 233.309 129.053C166.714 166.603 202.416 241.513 237.478 290.193C280.645 350.184 335.339 410.121 341.639 475.695C348.278 544.932 381.318 702.809 425.436 771.726C456.563 820.348 533.809 888.545 611.619 897.438C689.429 906.332 765.88 858.152 824.725 828.729C883.569 799.305 1129.69 943.037 1157.35 897.314C1194.55 835.83 1112.01 758.211 1052.82 708.439C992.798 657.983 923.262 612.514 847.709 571.942C819.707 556.985 789.883 546.033 770.571 531.972Z" stroke="#0D92F4" stroke-opacity="0.2" stroke-width="3"/>
<path d="M223.385 117.73C152.418 157.72 190.582 237.614 227.856 289.486C273.757 353.414 332.243 417.311 338.804 487.225C345.832 561.013 365.892 713.096 412.976 786.564C446.155 838.458 528.155 904.847 611.202 914.339C685.421 922.822 758.183 880.392 815.915 854.075C875.403 826.978 1098.38 950.43 1129.68 907.376C1172.87 847.753 1109.54 771.841 1062.6 719.648C1015.54 667.244 955.838 619.275 887.566 576.008C862.262 559.988 834.871 547.648 816.268 532.688C800.287 519.988 791.049 505.314 794.473 484.643C799.701 453.5 811.357 424.462 821.173 395.607C829.595 371 836.498 346.416 835.996 320.3C835.776 307.637 833.184 294.507 828.264 280.523C814.719 242.532 778.974 207.783 728.89 179.134C654.455 136.73 581.428 109.867 513.381 95.134C385.877 67.4329 273.618 89.3795 223.385 117.73Z" stroke="#0D92F4" stroke-opacity="0.2" stroke-width="3"/>
<path d="M213.311 106.39C137.972 148.819 178.449 233.68 218.084 288.761C266.868 356.643 328.847 424.467 335.969 498.755C343.387 577.094 350.454 723.479 400.355 801.482C435.596 856.55 522.49 921.245 610.475 931.302C681.252 939.392 750.336 902.616 806.794 879.483C867.076 854.73 1067.04 958.017 1101.54 917.483C1150.88 859.739 1106.45 785.595 1071.92 730.999C1037.5 676.71 988.092 626.195 927.101 580.233C904.635 563.264 879.676 549.537 861.643 533.565C846.349 520.159 836.546 505.127 836.867 485.081C837.367 454.18 841.271 425.335 843.002 396.927C844.535 372.904 844.655 349.308 838.728 324.237C835.843 312.347 830.608 299.797 823.355 286.33C804.507 250.966 766.385 217.121 714.892 187.527C642.625 146.056 571.492 115.884 503.388 96.3433C385.104 62.2506 270.509 74.1336 213.311 106.39Z" stroke="#0D92F4" stroke-opacity="0.2" stroke-width="3"/>
<path d="M203.237 95.0507C123.516 140.016 166.316 229.746 208.153 288.116C259.82 359.952 325.43 431.815 332.825 510.348C340.781 593.255 334.719 733.829 387.436 816.366C424.74 874.609 516.377 937.593 609.599 948.248C676.785 955.928 742.479 924.936 797.674 904.892C858.738 882.58 1035.71 965.506 1073.55 927.607C1129.2 871.76 1103.5 799.463 1081.39 742.271C1059.77 686.113 1020.51 633.035 966.809 584.282C947.03 566.347 924.653 551.249 907.18 534.361C892.573 520.25 882.194 504.957 879.561 485.552C875.334 454.896 871.485 426.241 865.141 398.184C859.775 374.842 853.273 352.155 841.772 328.112C836.382 316.916 828.481 305.138 818.917 291.995C794.916 259.274 754.417 226.333 701.367 195.778C631.095 155.417 561.984 122.144 493.718 97.3934C384.232 57.9385 267.4 58.8876 203.237 95.0507Z" stroke="#0D92F4" stroke-opacity="0.2" stroke-width="3"/>
<path d="M193.166 83.7109C109.073 131.115 154.185 225.813 198.384 287.391C252.773 363.261 322.036 438.971 329.993 521.878C338.339 609.336 319.284 744.212 374.979 831.204C414.334 892.719 510.875 953.912 609.174 965.246C672.768 972.514 735.211 947.421 788.867 930.238C850.851 910.48 1004.83 973.144 1045.88 937.572C1108.13 883.655 1100.72 813.251 1091.18 753.479C1082.03 695.613 1053.08 639.892 1006.66 588.444C989.716 569.56 969.771 553.075 952.858 535.271C938.926 520.552 927.982 504.9 922.257 486.024C913.015 455.479 901.839 427.261 887.272 399.537C875.317 376.814 861.893 355.001 844.645 332.163C836.75 321.66 826.195 310.559 814.149 297.916C785.305 267.776 741.969 235.784 687.511 204.285C619.246 164.937 552.101 129.048 483.706 98.796C383.147 54.1895 264.454 43.5619 193.166 83.7109Z" stroke="#0D92F4" stroke-opacity="0.2" stroke-width="3"/>
<path d="M183.092 72.3709C94.6271 122.215 142.052 221.879 188.613 286.666C245.885 366.491 318.79 446.143 327.019 533.294C335.755 625.303 303.57 754.368 362.22 846.008C403.637 910.697 504.922 970.18 608.458 982.112C668.461 988.97 727.652 969.775 779.758 955.549C842.812 938.363 973.801 980.668 1017.75 947.583C1086.74 895.709 1097.17 827.051 1100.5 764.733C1103.68 705.141 1085.18 646.795 1046.07 592.459C1031.8 572.705 1014.45 554.753 998.255 535.954C985 520.626 973.341 504.598 964.812 486.381C950.543 456.046 932.224 427.991 909.261 400.777C890.706 378.769 870.66 357.864 847.538 336.02C837.288 326.228 824.24 315.723 809.561 303.563C776.185 275.943 729.84 245.076 673.686 212.501C607.427 174.166 541.756 135.996 473.586 99.7945C381.543 50.9692 261.345 28.3156 183.092 72.3709Z" stroke="#0D92F4" stroke-opacity="0.2" stroke-width="3"/>
<path d="M173.158 61.1448C80.3215 113.428 130.07 217.962 178.843 285.941C238.998 369.72 315.396 453.298 324.186 544.824C333.46 641.401 288.145 764.654 349.612 860.829C393.092 928.693 499.258 986.578 607.743 998.978C664.305 1005.44 720.084 992.226 770.65 980.861C834.764 966.343 942.914 988.305 989.777 957.61C1065.65 907.894 1093.78 840.771 1109.99 775.908C1125.35 714.476 1117.46 653.521 1085.77 596.508C1074.2 575.787 1059.28 556.448 1043.79 536.75C1031.22 520.717 1018.84 504.41 1007.51 486.853C988.062 456.71 962.888 428.949 931.402 402.034C906.257 380.645 879.451 360.535 850.583 339.895C837.828 330.796 822.286 320.888 804.964 309.307C767.227 284.029 717.563 254.351 660.012 220.734C595.76 183.413 531.08 143.201 463.755 100.924C379.309 47.9707 258.237 13.0695 173.158 61.1448Z" stroke="#0D92F4" stroke-opacity="0.2" stroke-width="3"/>
<path d="M163.085 49.8046C65.8661 104.624 118.077 214.141 169.211 285.329C232.249 373.063 312.29 460.584 321.342 556.45C331.005 657.578 272.698 775.134 337.131 875.861C382.513 946.979 493.583 1003.07 607.305 1016.07C660.276 1022.13 712.921 1015.11 761.969 1006.42C827.27 994.778 912.442 996.284 962.227 967.882C1044.95 920.517 1090.67 854.718 1119.74 787.407C1147.14 724.117 1149.84 660.651 1125.6 600.864C1116.71 579.177 1104.22 558.45 1089.45 537.854C1077.41 521.195 1064.3 504.512 1050.18 487.517C1025.54 457.76 993.402 429.889 953.509 403.581C921.936 382.73 888.358 363.512 853.582 344.156C838.473 335.767 820.448 326.36 800.333 315.342C758.247 292.309 705.253 263.916 646.294 229.354C584.07 192.852 519.749 150.821 453.903 102.247C376.604 45.114 255.13 -2.17702 163.085 49.8046Z" stroke="#0D92F4" stroke-opacity="0.2" stroke-width="3"/>
<path d="M856.637 347.934C767.927 308.405 603.586 240.931 444.06 103.473C373.139 42.2691 252.17 -17.4058 153.012 38.465C51.4208 95.7232 105.944 210.208 159.291 284.588C225.062 376.258 308.744 467.723 318.358 567.963C328.56 673.659 257.123 785.404 324.373 890.665C371.817 964.958 487.78 1019.36 606.59 1032.94C725.399 1046.52 844.242 1022.68 934.11 977.796C1023.99 932.817 1086.86 868.193 1129.09 798.468C1214.7 656.896 1177.39 512.442 975.521 404.628C937.52 384.316 897.17 365.988 856.637 347.934Z" stroke="#0D92F4" stroke-opacity="0.2" stroke-width="3"/>
</g>
</svg>
