<svg width="34" height="5" viewBox="0 0 34 5" fill="none" xmlns="http://www.w3.org/2000/svg">
<path fill-rule="evenodd" clip-rule="evenodd" d="M6.86838 1.06085C4.89693 1.43098 1.94264 2.80025 1.19375 3.68721C0.65103 4.3335 1.1506 4.24719 2.86411 3.42064C4.4568 2.6545 5.98142 2.11178 7.11768 1.91329C8.56463 1.66399 10.1055 1.77521 10.8976 2.17986C11.1469 2.31794 11.1555 2.3352 11.0098 2.42054C9.279 3.46283 8.80531 4.10816 9.3653 4.66814C9.79583 5.10731 11.0011 4.87526 11.6992 4.22035C12.1211 3.82433 12.2678 3.54051 12.3282 3.00641L12.38 2.51546L12.8537 2.36013C14.361 1.85192 16.53 1.64577 17.6155 1.90371C18.1323 2.02452 18.5974 2.21342 18.9588 2.46369C19.0538 2.5241 18.9847 2.63628 18.5974 2.98915C17.8485 3.67762 17.6845 4.28939 18.1323 4.7717C18.3816 5.0469 19.0624 5.0469 19.4498 4.78034C19.9235 4.45336 20.1728 3.97967 20.1728 3.40242V2.91148L20.7414 2.73026C22.0675 2.32561 24.0476 2.60944 24.8061 3.33339C24.9873 3.49736 24.9873 3.53187 24.8665 3.70351C24.6939 3.94419 24.7025 4.48692 24.8751 4.65952C25.0564 4.84937 25.4783 4.83211 25.6844 4.62499C25.8484 4.46102 25.9165 4.28076 25.9596 3.85022C25.9769 3.67763 26.1149 3.57503 26.6308 3.31613C27.4142 2.92011 28.0174 2.76477 29.1277 2.65354C30.9189 2.46368 32.2709 2.83477 33.528 3.85885C34.0621 4.28939 33.9586 3.76393 33.3727 3.08408C32.7609 2.36109 31.7541 1.9737 30.3158 1.89603C28.7576 1.80974 27.1208 2.12808 26.0363 2.73121L25.5713 2.98915L25.2702 2.71395C24.8569 2.36109 24.202 2.06767 23.4272 1.90466C22.5834 1.72343 21.1192 1.78385 20.3272 2.03411L19.7499 2.22397L19.3884 1.96603C18.1313 1.05318 15.6344 0.966882 12.8872 1.75124L12.0952 1.97466L11.6819 1.67357C10.9331 1.13948 10.3213 0.9851 8.84942 0.95921C7.97972 0.94195 7.33344 0.976471 6.86934 1.06277L6.86838 1.06085ZM11.4748 3.10134C11.4748 3.40243 10.4929 4.10049 10.0624 4.10912C9.90706 4.10912 9.90706 4.09186 10.1055 3.8857C10.3213 3.64502 11.2763 2.99011 11.4058 2.99011C11.4403 2.99011 11.4748 3.04189 11.4748 3.1023V3.10134ZM19.3625 3.66995C19.2158 3.93652 18.8285 4.25582 18.7422 4.16953C18.6645 4.09186 18.8543 3.7994 19.1468 3.55777C19.4738 3.28257 19.5428 3.31709 19.3616 3.66995H19.3625Z" fill="black"/>
</svg>
