<svg width="29" height="3" viewBox="0 0 29 3" fill="none" xmlns="http://www.w3.org/2000/svg">
<path fill-rule="evenodd" clip-rule="evenodd" d="M1.40448 0.978428C0.708012 1.00686 0.480591 1.09924 0.480591 1.35509C0.480591 1.55408 0.963855 1.5754 4.05444 1.53986L6.91051 1.50433L6.27089 1.63936C5.2475 1.85967 4.9357 1.95917 4.85752 2.08709C4.75092 2.25055 4.87173 2.43533 5.14179 2.51351C5.2555 2.54194 7.20189 2.54904 9.4823 2.52772C13.9507 2.47797 20.0253 2.57746 22.9311 2.74803C25.7374 2.91148 28.3305 3.0181 28.3803 2.96835C28.4798 2.86885 28.295 2.8262 27.038 2.66275C24.6012 2.35715 20.7013 2.09421 18.0656 2.05867C17.5894 2.05156 17.3265 2.03024 17.4615 2.00182C17.6463 1.97339 17.7102 1.92363 17.7102 1.81703C17.7102 1.64647 17.4402 1.60383 15.8705 1.53276C15.2806 1.51144 13.7748 1.41194 12.524 1.31955C11.2741 1.22006 9.71061 1.11346 9.04257 1.07082C7.78465 0.992645 2.578 0.92868 1.40537 0.978428H1.40448ZM16.6433 1.92364C17.0058 1.96628 16.6291 1.97338 15.5844 1.95206C14.689 1.93785 12.9131 1.91653 11.6419 1.90942C9.34017 1.89521 9.33305 1.89521 10.782 1.84546C12.4156 1.79572 15.7763 1.83836 16.6433 1.92364ZM8.48734 1.97338C8.34521 1.9876 8.11779 1.9876 7.98987 1.97338C7.86905 1.95917 7.98986 1.94496 8.25992 1.94496C8.52998 1.94496 8.63659 1.95917 8.48734 1.97338Z" fill="black"/>
</svg>
