<svg width="543" height="544" viewBox="0 0 543 544" fill="none" xmlns="http://www.w3.org/2000/svg">
<circle cx="247.255" cy="134.727" r="7.66322" transform="rotate(-10 247.255 134.727)" fill="black"/>
<circle cx="223.772" cy="141.019" r="7.66322" transform="rotate(-20 223.772 141.019)" fill="black"/>
<circle cx="201.738" cy="151.294" r="7.66322" transform="rotate(-30 201.738 151.294)" fill="black"/>
<circle cx="181.824" cy="165.238" r="7.66322" transform="rotate(-40 181.824 165.238)" fill="black"/>
<circle cx="164.633" cy="182.429" r="7.66322" transform="rotate(-50 164.633 182.429)" fill="black"/>
<circle cx="150.689" cy="202.343" r="7.66322" transform="rotate(-60 150.689 202.343)" fill="black"/>
<circle cx="140.414" cy="224.377" r="7.66322" transform="rotate(-70 140.414 224.377)" fill="black"/>
<circle cx="134.122" cy="247.86" r="7.66322" transform="rotate(-80 134.122 247.86)" fill="black"/>
<circle cx="132.003" cy="272.079" r="7.66322" transform="rotate(-90 132.003 272.079)" fill="black"/>
<circle cx="134.122" cy="296.297" r="7.66322" transform="rotate(-100 134.122 296.297)" fill="black"/>
<circle cx="140.414" cy="319.78" r="7.66322" transform="rotate(-110 140.414 319.78)" fill="black"/>
<circle cx="150.689" cy="341.814" r="7.66322" transform="rotate(-120 150.689 341.814)" fill="black"/>
<circle cx="164.633" cy="361.729" r="7.66322" transform="rotate(-130 164.633 361.729)" fill="black"/>
<circle cx="181.824" cy="378.919" r="7.66322" transform="rotate(-140 181.824 378.919)" fill="black"/>
<circle cx="201.739" cy="392.864" r="7.66322" transform="rotate(-150 201.739 392.864)" fill="black"/>
<circle cx="223.772" cy="403.138" r="7.66322" transform="rotate(-160 223.772 403.138)" fill="black"/>
<circle cx="247.255" cy="409.43" r="7.66322" transform="rotate(-170 247.255 409.43)" fill="black"/>
<circle cx="271.474" cy="411.549" r="7.66322" transform="rotate(180 271.474 411.549)" fill="black"/>
<circle cx="295.693" cy="409.43" r="7.66322" transform="rotate(170 295.693 409.43)" fill="black"/>
<circle cx="319.176" cy="403.138" r="7.66322" transform="rotate(160 319.176 403.138)" fill="black"/>
<circle cx="341.209" cy="392.864" r="7.66322" transform="rotate(150 341.209 392.864)" fill="black"/>
<circle cx="361.124" cy="378.919" r="7.66322" transform="rotate(140 361.124 378.919)" fill="black"/>
<circle cx="378.315" cy="361.728" r="7.66322" transform="rotate(130 378.315 361.728)" fill="black"/>
<circle cx="392.259" cy="341.814" r="7.66322" transform="rotate(120 392.259 341.814)" fill="black"/>
<circle cx="402.533" cy="319.78" r="7.66322" transform="rotate(110 402.533 319.78)" fill="black"/>
<circle cx="408.825" cy="296.297" r="7.66322" transform="rotate(100 408.825 296.297)" fill="black"/>
<circle cx="410.944" cy="272.078" r="7.66322" transform="rotate(90 410.944 272.078)" fill="black"/>
<circle cx="408.825" cy="247.86" r="7.66322" transform="rotate(80 408.825 247.86)" fill="black"/>
<circle cx="402.533" cy="224.377" r="7.66322" transform="rotate(70 402.533 224.377)" fill="black"/>
<circle cx="392.259" cy="202.343" r="7.66322" transform="rotate(60 392.259 202.343)" fill="black"/>
<circle cx="378.314" cy="182.429" r="7.66322" transform="rotate(50 378.314 182.429)" fill="black"/>
<circle cx="361.124" cy="165.238" r="7.66322" transform="rotate(40 361.124 165.238)" fill="black"/>
<circle cx="341.209" cy="151.294" r="7.66322" transform="rotate(30 341.209 151.294)" fill="black"/>
<circle cx="319.175" cy="141.019" r="7.66322" transform="rotate(20 319.175 141.019)" fill="black"/>
<circle cx="295.693" cy="134.727" r="7.66322" transform="rotate(10 295.693 134.727)" fill="black"/>
<circle cx="271.474" cy="132.608" r="7.66322" fill="black"/>
<circle cx="228.98" cy="117.654" r="6.89689" transform="rotate(-15 228.98 117.654)" fill="black"/>
<circle cx="202.81" cy="127.379" r="6.89689" transform="rotate(-25 202.81 127.379)" fill="black"/>
<circle cx="178.726" cy="141.5" r="6.89689" transform="rotate(-35 178.726 141.5)" fill="black"/>
<circle cx="157.461" cy="159.589" r="6.89689" transform="rotate(-45 157.461 159.589)" fill="black"/>
<circle cx="139.659" cy="181.097" r="6.89689" transform="rotate(-55 139.659 181.097)" fill="black"/>
<circle cx="125.863" cy="205.368" r="6.89689" transform="rotate(-65 125.863 205.368)" fill="black"/>
<circle cx="116.491" cy="231.667" r="6.89689" transform="rotate(-75 116.491 231.667)" fill="black"/>
<circle cx="111.828" cy="259.193" r="6.89689" transform="rotate(-85 111.828 259.193)" fill="black"/>
<circle cx="112.016" cy="287.111" r="6.89689" transform="rotate(-95 112.016 287.111)" fill="black"/>
<circle cx="117.049" cy="314.572" r="6.89689" transform="rotate(-105 117.049 314.572)" fill="black"/>
<circle cx="126.774" cy="340.742" r="6.89689" transform="rotate(-115 126.774 340.742)" fill="black"/>
<circle cx="140.896" cy="364.826" r="6.89689" transform="rotate(-125 140.896 364.826)" fill="black"/>
<circle cx="158.985" cy="386.092" r="6.89689" transform="rotate(-135 158.985 386.092)" fill="black"/>
<circle cx="180.492" cy="403.893" r="6.89689" transform="rotate(-145 180.492 403.893)" fill="black"/>
<circle cx="204.764" cy="417.69" r="6.89689" transform="rotate(-155 204.764 417.69)" fill="black"/>
<circle cx="231.062" cy="427.061" r="6.89689" transform="rotate(-165 231.062 427.061)" fill="black"/>
<circle cx="258.589" cy="431.724" r="6.89689" transform="rotate(-175 258.589 431.724)" fill="black"/>
<circle cx="286.506" cy="431.537" r="6.89689" transform="rotate(175 286.506 431.537)" fill="black"/>
<circle cx="313.968" cy="426.504" r="6.89689" transform="rotate(165 313.968 426.504)" fill="black"/>
<circle cx="340.138" cy="416.779" r="6.89689" transform="rotate(155 340.138 416.779)" fill="black"/>
<circle cx="364.221" cy="402.657" r="6.89689" transform="rotate(145 364.221 402.657)" fill="black"/>
<circle cx="385.487" cy="384.568" r="6.89689" transform="rotate(135 385.487 384.568)" fill="black"/>
<circle cx="403.289" cy="363.061" r="6.89689" transform="rotate(125 403.289 363.061)" fill="black"/>
<circle cx="417.085" cy="338.789" r="6.89689" transform="rotate(115 417.085 338.789)" fill="black"/>
<circle cx="426.457" cy="312.49" r="6.89689" transform="rotate(105 426.457 312.49)" fill="black"/>
<circle cx="431.12" cy="284.964" r="6.89689" transform="rotate(95 431.12 284.964)" fill="black"/>
<circle cx="430.932" cy="257.046" r="6.89689" transform="rotate(85 430.932 257.046)" fill="black"/>
<circle cx="425.899" cy="229.585" r="6.89689" transform="rotate(75 425.899 229.585)" fill="black"/>
<circle cx="416.174" cy="203.415" r="6.89689" transform="rotate(65 416.174 203.415)" fill="black"/>
<circle cx="402.052" cy="179.331" r="6.89689" transform="rotate(55 402.052 179.331)" fill="black"/>
<circle cx="383.963" cy="158.065" r="6.89689" transform="rotate(45 383.963 158.065)" fill="black"/>
<circle cx="362.456" cy="140.264" r="6.89689" transform="rotate(35 362.456 140.264)" fill="black"/>
<circle cx="338.184" cy="126.468" r="6.89689" transform="rotate(25 338.184 126.468)" fill="black"/>
<circle cx="311.886" cy="117.096" r="6.89689" transform="rotate(15 311.886 117.096)" fill="black"/>
<circle cx="284.359" cy="112.433" r="6.89689" transform="rotate(5 284.359 112.433)" fill="black"/>
<circle cx="256.441" cy="112.621" r="6.89689" transform="rotate(-5 256.441 112.621)" fill="black"/>
<circle cx="237.947" cy="94.3486" r="6.13057" transform="rotate(-10 237.947 94.3486)" fill="black"/>
<circle cx="207.593" cy="102.871" r="6.13057" transform="rotate(-20 207.593 102.871)" fill="black"/>
<circle cx="179.181" cy="116.534" r="6.13057" transform="rotate(-30 179.181 116.534)" fill="black"/>
<circle cx="153.573" cy="134.923" r="6.13057" transform="rotate(-40 153.573 134.923)" fill="black"/>
<circle cx="131.548" cy="157.48" r="6.13057" transform="rotate(-50 131.548 157.48)" fill="black"/>
<circle cx="113.774" cy="183.519" r="6.13057" transform="rotate(-60 113.774 183.519)" fill="black"/>
<circle cx="100.791" cy="212.249" r="6.13057" transform="rotate(-70 100.791 212.249)" fill="black"/>
<circle cx="92.9951" cy="242.797" r="6.13057" transform="rotate(-80 92.9951 242.797)" fill="black"/>
<circle cx="90.6218" cy="274.234" r="6.13057" transform="rotate(-90 90.6218 274.234)" fill="black"/>
<circle cx="93.7437" cy="305.606" r="6.13057" transform="rotate(-100 93.7437 305.606)" fill="black"/>
<circle cx="102.266" cy="335.959" r="6.13057" transform="rotate(-110 102.266 335.959)" fill="black"/>
<circle cx="115.929" cy="364.372" r="6.13057" transform="rotate(-120 115.929 364.372)" fill="black"/>
<circle cx="134.319" cy="389.979" r="6.13057" transform="rotate(-130 134.319 389.979)" fill="black"/>
<circle cx="156.876" cy="412.005" r="6.13057" transform="rotate(-140 156.876 412.005)" fill="black"/>
<circle cx="182.914" cy="429.779" r="6.13057" transform="rotate(-150 182.914 429.779)" fill="black"/>
<circle cx="211.644" cy="442.761" r="6.13057" transform="rotate(-160 211.644 442.761)" fill="black"/>
<circle cx="242.192" cy="450.558" r="6.13057" transform="rotate(-170 242.192 450.558)" fill="black"/>
<circle cx="273.629" cy="452.931" r="6.13057" transform="rotate(180 273.629 452.931)" fill="black"/>
<circle cx="305.001" cy="449.809" r="6.13057" transform="rotate(170 305.001 449.809)" fill="black"/>
<circle cx="335.354" cy="441.287" r="6.13057" transform="rotate(160 335.354 441.287)" fill="black"/>
<circle cx="363.767" cy="427.624" r="6.13057" transform="rotate(150 363.767 427.624)" fill="black"/>
<circle cx="389.374" cy="409.234" r="6.13057" transform="rotate(140 389.374 409.234)" fill="black"/>
<circle cx="411.4" cy="386.677" r="6.13057" transform="rotate(130 411.4 386.677)" fill="black"/>
<circle cx="429.174" cy="360.638" r="6.13057" transform="rotate(120 429.174 360.638)" fill="black"/>
<circle cx="442.156" cy="331.908" r="6.13057" transform="rotate(110 442.156 331.908)" fill="black"/>
<circle cx="449.953" cy="301.361" r="6.13057" transform="rotate(100 449.953 301.361)" fill="black"/>
<circle cx="452.326" cy="269.923" r="6.13057" transform="rotate(90 452.326 269.923)" fill="black"/>
<circle cx="449.204" cy="238.551" r="6.13057" transform="rotate(80 449.204 238.551)" fill="black"/>
<circle cx="440.682" cy="208.198" r="6.13057" transform="rotate(70 440.682 208.198)" fill="black"/>
<circle cx="427.019" cy="179.786" r="6.13057" transform="rotate(60 427.019 179.786)" fill="black"/>
<circle cx="408.629" cy="154.178" r="6.13057" transform="rotate(50 408.629 154.178)" fill="black"/>
<circle cx="386.072" cy="132.153" r="6.13057" transform="rotate(40 386.072 132.153)" fill="black"/>
<circle cx="360.033" cy="114.378" r="6.13057" transform="rotate(30 360.033 114.378)" fill="black"/>
<circle cx="331.303" cy="101.396" r="6.13057" transform="rotate(20 331.303 101.396)" fill="black"/>
<circle cx="300.756" cy="93.6001" r="6.13057" transform="rotate(10 300.756 93.6001)" fill="black"/>
<circle cx="269.319" cy="91.2267" r="6.13057" fill="black"/>
<circle cx="216.188" cy="78.2403" r="5.36425" transform="rotate(-15 216.188 78.2403)" fill="black"/>
<circle cx="183.368" cy="90.7856" r="5.36425" transform="rotate(-25 183.368 90.7856)" fill="black"/>
<circle cx="153.225" cy="108.839" r="5.36425" transform="rotate(-35 153.225 108.839)" fill="black"/>
<circle cx="126.676" cy="131.852" r="5.36425" transform="rotate(-45 126.676 131.852)" fill="black"/>
<circle cx="104.525" cy="159.127" r="5.36425" transform="rotate(-55 104.525 159.127)" fill="black"/>
<circle cx="87.4479" cy="189.833" r="5.36425" transform="rotate(-65 87.4479 189.833)" fill="black"/>
<circle cx="75.9617" cy="223.039" r="5.36425" transform="rotate(-75 75.9617 223.039)" fill="black"/>
<circle cx="70.4163" cy="257.734" r="5.36425" transform="rotate(-85 70.4163 257.734)" fill="black"/>
<circle cx="70.9798" cy="292.865" r="5.36425" transform="rotate(-95 70.9798 292.865)" fill="black"/>
<circle cx="77.6353" cy="327.365" r="5.36425" transform="rotate(-105 77.6353 327.365)" fill="black"/>
<circle cx="90.1805" cy="360.185" r="5.36425" transform="rotate(-115 90.1805 360.185)" fill="black"/>
<circle cx="108.234" cy="390.328" r="5.36425" transform="rotate(-125 108.234 390.328)" fill="black"/>
<circle cx="131.248" cy="416.877" r="5.36425" transform="rotate(-135 131.248 416.877)" fill="black"/>
<circle cx="158.522" cy="439.028" r="5.36425" transform="rotate(-145 158.522 439.028)" fill="black"/>
<circle cx="189.228" cy="456.105" r="5.36425" transform="rotate(-155 189.228 456.105)" fill="black"/>
<circle cx="222.434" cy="467.591" r="5.36425" transform="rotate(-165 222.434 467.591)" fill="black"/>
<circle cx="257.129" cy="473.137" r="5.36425" transform="rotate(-175 257.129 473.137)" fill="black"/>
<circle cx="292.26" cy="472.573" r="5.36425" transform="rotate(175 292.26 472.573)" fill="black"/>
<circle cx="326.76" cy="465.917" r="5.36425" transform="rotate(165 326.76 465.917)" fill="black"/>
<circle cx="359.58" cy="453.372" r="5.36425" transform="rotate(155 359.58 453.372)" fill="black"/>
<circle cx="389.723" cy="435.319" r="5.36425" transform="rotate(145 389.723 435.319)" fill="black"/>
<circle cx="416.272" cy="412.305" r="5.36425" transform="rotate(135 416.272 412.305)" fill="black"/>
<circle cx="438.423" cy="385.03" r="5.36425" transform="rotate(125 438.423 385.03)" fill="black"/>
<circle cx="455.5" cy="354.324" r="5.36425" transform="rotate(115 455.5 354.324)" fill="black"/>
<circle cx="466.986" cy="321.119" r="5.36425" transform="rotate(105 466.986 321.119)" fill="black"/>
<circle cx="472.531" cy="286.424" r="5.36425" transform="rotate(95 472.531 286.424)" fill="black"/>
<circle cx="471.968" cy="251.292" r="5.36425" transform="rotate(85 471.968 251.292)" fill="black"/>
<circle cx="465.313" cy="216.793" r="5.36425" transform="rotate(75 465.313 216.793)" fill="black"/>
<circle cx="452.767" cy="183.973" r="5.36425" transform="rotate(65 452.767 183.973)" fill="black"/>
<circle cx="434.714" cy="153.831" r="5.36425" transform="rotate(55 434.714 153.831)" fill="black"/>
<circle cx="411.7" cy="127.28" r="5.36425" transform="rotate(45 411.7 127.28)" fill="black"/>
<circle cx="384.426" cy="105.13" r="5.36425" transform="rotate(35 384.426 105.13)" fill="black"/>
<circle cx="353.719" cy="88.0523" r="5.36425" transform="rotate(25 353.719 88.0523)" fill="black"/>
<circle cx="320.514" cy="76.5665" r="5.36425" transform="rotate(15 320.514 76.5665)" fill="black"/>
<circle cx="285.819" cy="71.0212" r="5.36425" transform="rotate(5 285.819 71.0212)" fill="black"/>
<circle cx="250.688" cy="71.5848" r="5.36425" transform="rotate(-5 250.688 71.5848)" fill="black"/>
<circle cx="228.638" cy="53.9704" r="4.59793" transform="rotate(-10 228.638 53.9704)" fill="black"/>
<circle cx="191.415" cy="64.7223" r="4.59793" transform="rotate(-20 191.415 64.7223)" fill="black"/>
<circle cx="156.624" cy="81.7738" r="4.59793" transform="rotate(-30 156.624 81.7738)" fill="black"/>
<circle cx="125.323" cy="104.609" r="4.59793" transform="rotate(-40 125.323 104.609)" fill="black"/>
<circle cx="98.4623" cy="132.532" r="4.59793" transform="rotate(-50 98.4623 132.532)" fill="black"/>
<circle cx="76.8588" cy="164.695" r="4.59793" transform="rotate(-60 76.8588 164.695)" fill="black"/>
<circle cx="61.1684" cy="200.122" r="4.59793" transform="rotate(-70 61.1684 200.122)" fill="black"/>
<circle cx="51.8683" cy="237.734" r="4.59793" transform="rotate(-80 51.8683 237.734)" fill="black"/>
<circle cx="49.2404" cy="276.389" r="4.59793" transform="rotate(-90 49.2404 276.389)" fill="black"/>
<circle cx="53.3652" cy="314.915" r="4.59793" transform="rotate(-100 53.3652 314.915)" fill="black"/>
<circle cx="64.1171" cy="352.138" r="4.59793" transform="rotate(-110 64.1171 352.138)" fill="black"/>
<circle cx="81.1695" cy="386.929" r="4.59793" transform="rotate(-120 81.1695 386.929)" fill="black"/>
<circle cx="104.004" cy="418.23" r="4.59793" transform="rotate(-130 104.004 418.23)" fill="black"/>
<circle cx="131.927" cy="445.091" r="4.59793" transform="rotate(-140 131.927 445.091)" fill="black"/>
<circle cx="164.09" cy="466.694" r="4.59793" transform="rotate(-150 164.09 466.694)" fill="black"/>
<circle cx="199.516" cy="482.384" r="4.59793" transform="rotate(-160 199.516 482.384)" fill="black"/>
<circle cx="237.129" cy="491.685" r="4.59793" transform="rotate(-170 237.129 491.685)" fill="black"/>
<circle cx="275.785" cy="494.312" r="4.59793" transform="rotate(180 275.785 494.312)" fill="black"/>
<circle cx="314.31" cy="490.187" r="4.59793" transform="rotate(170 314.31 490.187)" fill="black"/>
<circle cx="351.533" cy="479.435" r="4.59793" transform="rotate(160 351.533 479.435)" fill="black"/>
<circle cx="386.324" cy="462.384" r="4.59793" transform="rotate(150 386.324 462.384)" fill="black"/>
<circle cx="417.625" cy="439.549" r="4.59793" transform="rotate(140 417.625 439.549)" fill="black"/>
<circle cx="444.486" cy="411.625" r="4.59793" transform="rotate(130 444.486 411.625)" fill="black"/>
<circle cx="466.089" cy="379.462" r="4.59793" transform="rotate(120 466.089 379.462)" fill="black"/>
<circle cx="481.779" cy="344.036" r="4.59793" transform="rotate(110 481.779 344.036)" fill="black"/>
<circle cx="491.08" cy="306.424" r="4.59793" transform="rotate(100 491.08 306.424)" fill="black"/>
<circle cx="493.707" cy="267.768" r="4.59793" transform="rotate(90 493.707 267.768)" fill="black"/>
<circle cx="489.583" cy="229.243" r="4.59793" transform="rotate(80 489.583 229.243)" fill="black"/>
<circle cx="478.831" cy="192.02" r="4.59793" transform="rotate(70 478.831 192.02)" fill="black"/>
<circle cx="461.778" cy="157.229" r="4.59793" transform="rotate(60 461.778 157.229)" fill="black"/>
<circle cx="438.944" cy="125.928" r="4.59793" transform="rotate(50 438.944 125.928)" fill="black"/>
<circle cx="411.021" cy="99.0674" r="4.59793" transform="rotate(40 411.021 99.0674)" fill="black"/>
<circle cx="378.857" cy="77.463" r="4.59793" transform="rotate(30 378.857 77.463)" fill="black"/>
<circle cx="343.431" cy="61.7729" r="4.59793" transform="rotate(20 343.431 61.7729)" fill="black"/>
<circle cx="305.819" cy="52.4732" r="4.59793" transform="rotate(10 305.819 52.4732)" fill="black"/>
<circle cx="267.163" cy="49.8454" r="4.59793" fill="black"/>
<circle cx="203.396" cy="38.8267" r="3.83161" transform="rotate(-15 203.396 38.8267)" fill="black"/>
<circle cx="163.926" cy="54.1922" r="3.83161" transform="rotate(-25 163.926 54.1922)" fill="black"/>
<circle cx="127.724" cy="76.1769" r="3.83161" transform="rotate(-35 127.724 76.1769)" fill="black"/>
<circle cx="95.8904" cy="104.115" r="3.83161" transform="rotate(-45 95.8904 104.115)" fill="black"/>
<circle cx="69.3914" cy="137.157" r="3.83161" transform="rotate(-55 69.3914 137.157)" fill="black"/>
<circle cx="49.0327" cy="174.298" r="3.83161" transform="rotate(-65 49.0327 174.298)" fill="black"/>
<circle cx="35.4326" cy="214.411" r="3.83161" transform="rotate(-75 35.4326 214.411)" fill="black"/>
<circle cx="29.0045" cy="256.274" r="3.83161" transform="rotate(-85 29.0045 256.274)" fill="black"/>
<circle cx="29.9437" cy="298.619" r="3.83161" transform="rotate(-95 29.9437 298.619)" fill="black"/>
<circle cx="38.2218" cy="340.157" r="3.83161" transform="rotate(-105 38.2218 340.157)" fill="black"/>
<circle cx="53.5872" cy="379.627" r="3.83161" transform="rotate(-115 53.5872 379.627)" fill="black"/>
<circle cx="75.5727" cy="415.829" r="3.83161" transform="rotate(-125 75.5727 415.829)" fill="black"/>
<circle cx="103.511" cy="447.663" r="3.83161" transform="rotate(-135 103.511 447.663)" fill="black"/>
<circle cx="136.552" cy="474.161" r="3.83161" transform="rotate(-145 136.552 474.161)" fill="black"/>
<circle cx="173.693" cy="494.52" r="3.83161" transform="rotate(-155 173.693 494.52)" fill="black"/>
<circle cx="213.805" cy="508.12" r="3.83161" transform="rotate(-165 213.805 508.12)" fill="black"/>
<circle cx="255.669" cy="514.548" r="3.83161" transform="rotate(-175 255.669 514.548)" fill="black"/>
<circle cx="298.014" cy="513.609" r="3.83161" transform="rotate(175 298.014 513.609)" fill="black"/>
<circle cx="339.552" cy="505.33" r="3.83161" transform="rotate(165 339.552 505.33)" fill="black"/>
<circle cx="379.021" cy="489.965" r="3.83161" transform="rotate(155 379.021 489.965)" fill="black"/>
<circle cx="415.223" cy="467.98" r="3.83161" transform="rotate(145 415.223 467.98)" fill="black"/>
<circle cx="447.057" cy="440.042" r="3.83161" transform="rotate(135 447.057 440.042)" fill="black"/>
<circle cx="473.556" cy="407" r="3.83161" transform="rotate(125 473.556 407)" fill="black"/>
<circle cx="493.915" cy="369.859" r="3.83161" transform="rotate(115 493.915 369.859)" fill="black"/>
<circle cx="507.515" cy="329.747" r="3.83161" transform="rotate(105 507.515 329.747)" fill="black"/>
<circle cx="513.943" cy="287.883" r="3.83161" transform="rotate(95 513.943 287.883)" fill="black"/>
<circle cx="513.004" cy="245.538" r="3.83161" transform="rotate(85 513.004 245.538)" fill="black"/>
<circle cx="504.726" cy="204" r="3.83161" transform="rotate(75 504.726 204)" fill="black"/>
<circle cx="489.361" cy="164.531" r="3.83161" transform="rotate(65 489.361 164.531)" fill="black"/>
<circle cx="467.375" cy="128.33" r="3.83161" transform="rotate(55 467.375 128.33)" fill="black"/>
<circle cx="439.437" cy="96.4952" r="3.83161" transform="rotate(45 439.437 96.4952)" fill="black"/>
<circle cx="406.396" cy="69.9965" r="3.83161" transform="rotate(35 406.396 69.9965)" fill="black"/>
<circle cx="369.254" cy="49.6367" r="3.83161" transform="rotate(25 369.254 49.6367)" fill="black"/>
<circle cx="329.142" cy="36.037" r="3.83161" transform="rotate(15 329.142 36.037)" fill="black"/>
<circle cx="287.278" cy="29.6094" r="3.83161" transform="rotate(5 287.278 29.6094)" fill="black"/>
<circle cx="244.934" cy="30.5486" r="3.83161" transform="rotate(-5 244.934 30.5486)" fill="black"/>
</svg>
