<svg width="3622" height="3622" viewBox="0 0 3622 3622" fill="none" xmlns="http://www.w3.org/2000/svg">
<g clip-path="url(#clip0_102_5720)">
<rect x="1801" y="1750" width="20" height="100" rx="10" fill="black"/>
<rect x="1621.58" y="1724.71" width="20" height="95" rx="10" transform="rotate(-63 1621.58 1724.71)" fill="black"/>
<rect x="1642.42" y="1931.4" width="20" height="95" rx="10" transform="rotate(-123 1642.42 1931.4)" fill="black"/>
<rect x="1831.85" y="2016.69" width="20" height="95" rx="10" transform="rotate(177 1831.85 2016.69)" fill="black"/>
<rect x="2000.42" y="1895.29" width="20" height="95" rx="10" transform="rotate(117 2000.42 1895.29)" fill="black"/>
<rect x="1979.58" y="1688.6" width="20" height="95" rx="10" transform="rotate(57 1979.58 1688.6)" fill="black"/>
<rect x="1790.15" y="1603.31" width="20" height="95" rx="10" transform="rotate(-3 1790.15 1603.31)" fill="black"/>
<rect x="1594.25" y="1528.68" width="20" height="90" rx="10" transform="rotate(-36 1594.25 1528.68)" fill="black"/>
<rect x="1482.62" y="1674.74" width="20" height="90" rx="10" transform="rotate(-66 1482.62 1674.74)" fill="black"/>
<rect x="1458.99" y="1857.05" width="20" height="90" rx="10" transform="rotate(-96 1458.99 1857.05)" fill="black"/>
<rect x="1529.68" y="2026.75" width="20" height="90" rx="10" transform="rotate(-126 1529.68 2026.75)" fill="black"/>
<rect x="1675.74" y="2138.38" width="20" height="90" rx="10" transform="rotate(-156 1675.74 2138.38)" fill="black"/>
<rect x="1858.05" y="2162.01" width="20" height="90" rx="10" transform="rotate(174 1858.05 2162.01)" fill="black"/>
<rect x="2027.75" y="2091.32" width="20" height="90" rx="10" transform="rotate(144 2027.75 2091.32)" fill="black"/>
<rect x="2139.38" y="1945.26" width="20" height="90" rx="10" transform="rotate(114 2139.38 1945.26)" fill="black"/>
<rect x="2163.01" y="1762.95" width="20" height="90" rx="10" transform="rotate(84 2163.01 1762.95)" fill="black"/>
<rect x="2092.32" y="1593.24" width="20" height="90" rx="10" transform="rotate(54 2092.32 1593.24)" fill="black"/>
<rect x="1946.26" y="1481.62" width="20" height="90" rx="10" transform="rotate(24 1946.26 1481.62)" fill="black"/>
<rect x="1763.95" y="1457.99" width="20" height="90" rx="10" transform="rotate(-6 1763.95 1457.99)" fill="black"/>
<rect x="1558.61" y="1375.35" width="20" height="85" rx="10" transform="rotate(-29 1558.61 1375.35)" fill="black"/>
<rect x="1425.17" y="1487.88" width="20" height="85" rx="10" transform="rotate(-49 1425.17 1487.88)" fill="black"/>
<rect x="1338.27" y="1639.26" width="20" height="85" rx="10" transform="rotate(-69 1338.27 1639.26)" fill="black"/>
<rect x="1308.38" y="1811.23" width="20" height="85" rx="10" transform="rotate(-89 1308.38 1811.23)" fill="black"/>
<rect x="1339.11" y="1983.05" width="20" height="85" rx="10" transform="rotate(-109 1339.11 1983.05)" fill="black"/>
<rect x="1426.76" y="2134.01" width="20" height="85" rx="10" transform="rotate(-129 1426.76 2134.01)" fill="black"/>
<rect x="1560.74" y="2245.88" width="20" height="85" rx="10" transform="rotate(-149 1560.74 2245.88)" fill="black"/>
<rect x="1724.91" y="2305.18" width="20" height="85" rx="10" transform="rotate(-169 1724.91 2305.18)" fill="black"/>
<rect x="1899.46" y="2304.75" width="20" height="85" rx="10" transform="rotate(171 1899.46 2304.75)" fill="black"/>
<rect x="2063.34" y="2244.65" width="20" height="85" rx="10" transform="rotate(151 2063.34 2244.65)" fill="black"/>
<rect x="2196.78" y="2132.12" width="20" height="85" rx="10" transform="rotate(131 2196.78 2132.12)" fill="black"/>
<rect x="2283.69" y="1980.74" width="20" height="85" rx="10" transform="rotate(111 2283.69 1980.74)" fill="black"/>
<rect x="2313.58" y="1808.77" width="20" height="85" rx="10" transform="rotate(91 2313.58 1808.77)" fill="black"/>
<rect x="2282.84" y="1636.95" width="20" height="85" rx="10" transform="rotate(71 2282.84 1636.95)" fill="black"/>
<rect x="2195.2" y="1486" width="20" height="85" rx="10" transform="rotate(51 2195.2 1486)" fill="black"/>
<rect x="2061.21" y="1374.12" width="20" height="85" rx="10" transform="rotate(31 2061.21 1374.12)" fill="black"/>
<rect x="1897.04" y="1314.82" width="20" height="85" rx="10" transform="rotate(11 1897.04 1314.82)" fill="black"/>
<rect x="1722.49" y="1315.25" width="20" height="85" rx="10" transform="rotate(-9 1722.49 1315.25)" fill="black"/>
<rect x="1506.99" y="1235.38" width="20" height="80" rx="10" transform="rotate(-27 1506.99 1235.38)" fill="black"/>
<rect x="1368.63" y="1333.65" width="20" height="80" rx="10" transform="rotate(-42 1368.63 1333.65)" fill="black"/>
<rect x="1260.41" y="1464.37" width="20" height="80" rx="10" transform="rotate(-57 1260.41 1464.37)" fill="black"/>
<rect x="1189.72" y="1618.65" width="20" height="80" rx="10" transform="rotate(-72 1189.72 1618.65)" fill="black"/>
<rect x="1161.36" y="1785.97" width="20" height="80" rx="10" transform="rotate(-87 1161.36 1785.97)" fill="black"/>
<rect x="1177.28" y="1954.93" width="20" height="80" rx="10" transform="rotate(-102 1177.28 1954.93)" fill="black"/>
<rect x="1236.38" y="2114.01" width="20" height="80" rx="10" transform="rotate(-117 1236.38 2114.01)" fill="black"/>
<rect x="1334.64" y="2252.37" width="20" height="80" rx="10" transform="rotate(-132 1334.64 2252.37)" fill="black"/>
<rect x="1465.37" y="2360.58" width="20" height="80" rx="10" transform="rotate(-147 1465.37 2360.58)" fill="black"/>
<rect x="1619.65" y="2431.28" width="20" height="80" rx="10" transform="rotate(-162 1619.65 2431.28)" fill="black"/>
<rect x="1786.96" y="2459.63" width="20" height="80" rx="10" transform="rotate(-177 1786.96 2459.63)" fill="black"/>
<rect x="1955.92" y="2443.72" width="20" height="80" rx="10" transform="rotate(168 1955.92 2443.72)" fill="black"/>
<rect x="2115" y="2384.62" width="20" height="80" rx="10" transform="rotate(153 2115 2384.62)" fill="black"/>
<rect x="2253.36" y="2286.35" width="20" height="80" rx="10" transform="rotate(138 2253.36 2286.35)" fill="black"/>
<rect x="2361.58" y="2155.63" width="20" height="80" rx="10" transform="rotate(123 2361.58 2155.63)" fill="black"/>
<rect x="2432.28" y="2001.35" width="20" height="80" rx="10" transform="rotate(108 2432.28 2001.35)" fill="black"/>
<rect x="2460.63" y="1834.03" width="20" height="80" rx="10" transform="rotate(93 2460.63 1834.03)" fill="black"/>
<rect x="2444.71" y="1665.07" width="20" height="80" rx="10" transform="rotate(78 2444.71 1665.07)" fill="black"/>
<rect x="2385.61" y="1505.99" width="20" height="80" rx="10" transform="rotate(63 2385.61 1505.99)" fill="black"/>
<rect x="2287.35" y="1367.63" width="20" height="80" rx="10" transform="rotate(48 2287.35 1367.63)" fill="black"/>
<rect x="2156.62" y="1259.41" width="20" height="80" rx="10" transform="rotate(33 2156.62 1259.41)" fill="black"/>
<rect x="2002.35" y="1188.72" width="20" height="80" rx="10" transform="rotate(18 2002.35 1188.72)" fill="black"/>
<rect x="1835.03" y="1160.37" width="20" height="80" rx="10" transform="rotate(3 1835.03 1160.37)" fill="black"/>
<rect x="1666.07" y="1176.28" width="20" height="80" rx="10" transform="rotate(-12 1666.07 1176.28)" fill="black"/>
<rect x="1440.03" y="1103.96" width="20" height="75" rx="10" transform="rotate(-27 1440.03 1103.96)" fill="black"/>
<rect x="1301.34" y="1196.52" width="20" height="75" rx="10" transform="rotate(-39 1301.34 1196.52)" fill="black"/>
<rect x="1184.93" y="1315.89" width="20" height="75" rx="10" transform="rotate(-51 1184.93 1315.89)" fill="black"/>
<rect x="1095.88" y="1456.85" width="20" height="75" rx="10" transform="rotate(-63 1095.88 1456.85)" fill="black"/>
<rect x="1038.08" y="1613.25" width="20" height="75" rx="10" transform="rotate(-75 1038.08 1613.25)" fill="black"/>
<rect x="1014.07" y="1778.25" width="20" height="75" rx="10" transform="rotate(-87 1014.07 1778.25)" fill="black"/>
<rect x="1024.88" y="1944.63" width="20" height="75" rx="10" transform="rotate(-99 1024.88 1944.63)" fill="black"/>
<rect x="1070.05" y="2105.13" width="20" height="75" rx="10" transform="rotate(-111 1070.05 2105.13)" fill="black"/>
<rect x="1147.61" y="2252.74" width="20" height="75" rx="10" transform="rotate(-123 1147.61 2252.74)" fill="black"/>
<rect x="1254.15" y="2380.99" width="20" height="75" rx="10" transform="rotate(-135 1254.15 2380.99)" fill="black"/>
<rect x="1385.04" y="2484.29" width="20" height="75" rx="10" transform="rotate(-147 1385.04 2484.29)" fill="black"/>
<rect x="1534.54" y="2558.11" width="20" height="75" rx="10" transform="rotate(-159 1534.54 2558.11)" fill="black"/>
<rect x="1696.12" y="2599.25" width="20" height="75" rx="10" transform="rotate(-171 1696.12 2599.25)" fill="black"/>
<rect x="1862.72" y="2605.88" width="20" height="75" rx="10" transform="rotate(177 1862.72 2605.88)" fill="black"/>
<rect x="2027.07" y="2577.74" width="20" height="75" rx="10" transform="rotate(165 2027.07 2577.74)" fill="black"/>
<rect x="2181.96" y="2516.04" width="20" height="75" rx="10" transform="rotate(153 2181.96 2516.04)" fill="black"/>
<rect x="2320.65" y="2423.48" width="20" height="75" rx="10" transform="rotate(141 2320.65 2423.48)" fill="black"/>
<rect x="2437.07" y="2304.11" width="20" height="75" rx="10" transform="rotate(129 2437.07 2304.11)" fill="black"/>
<rect x="2526.12" y="2163.15" width="20" height="75" rx="10" transform="rotate(117 2526.12 2163.15)" fill="black"/>
<rect x="2583.91" y="2006.75" width="20" height="75" rx="10" transform="rotate(105 2583.91 2006.75)" fill="black"/>
<rect x="2607.93" y="1841.75" width="20" height="75" rx="10" transform="rotate(93 2607.93 1841.75)" fill="black"/>
<rect x="2597.12" y="1675.37" width="20" height="75" rx="10" transform="rotate(81 2597.12 1675.37)" fill="black"/>
<rect x="2551.95" y="1514.87" width="20" height="75" rx="10" transform="rotate(69 2551.95 1514.87)" fill="black"/>
<rect x="2474.39" y="1367.26" width="20" height="75" rx="10" transform="rotate(57 2474.39 1367.26)" fill="black"/>
<rect x="2367.84" y="1239.01" width="20" height="75" rx="10" transform="rotate(45 2367.84 1239.01)" fill="black"/>
<rect x="2236.96" y="1135.71" width="20" height="75" rx="10" transform="rotate(33 2236.96 1135.71)" fill="black"/>
<rect x="2087.46" y="1061.88" width="20" height="75" rx="10" transform="rotate(21 2087.46 1061.88)" fill="black"/>
<rect x="1925.88" y="1020.75" width="20" height="75" rx="10" transform="rotate(9 1925.88 1020.75)" fill="black"/>
<rect x="1759.27" y="1014.12" width="20" height="75" rx="10" transform="rotate(-3 1759.27 1014.12)" fill="black"/>
<rect x="1594.93" y="1042.26" width="20" height="75" rx="10" transform="rotate(-15 1594.93 1042.26)" fill="black"/>
<rect x="1358.52" y="980.309" width="20" height="70" rx="10" transform="rotate(-28 1358.52 980.309)" fill="black"/>
<rect x="1221.32" y="1071.49" width="20" height="70" rx="10" transform="rotate(-38 1221.32 1071.49)" fill="black"/>
<rect x="1102.04" y="1185.1" width="20" height="70" rx="10" transform="rotate(-48 1102.04 1185.1)" fill="black"/>
<rect x="1004.29" y="1317.71" width="20" height="70" rx="10" transform="rotate(-58 1004.29 1317.71)" fill="black"/>
<rect x="931.064" y="1465.27" width="20" height="70" rx="10" transform="rotate(-68 931.064 1465.27)" fill="black"/>
<rect x="884.57" y="1623.3" width="20" height="70" rx="10" transform="rotate(-78 884.57 1623.3)" fill="black"/>
<rect x="866.227" y="1787.02" width="20" height="70" rx="10" transform="rotate(-88 866.227 1787.02)" fill="black"/>
<rect x="876.588" y="1951.42" width="20" height="70" rx="10" transform="rotate(-98 876.588 1951.42)" fill="black"/>
<rect x="915.342" y="2111.53" width="20" height="70" rx="10" transform="rotate(-108 915.342 2111.53)" fill="black"/>
<rect x="981.31" y="2262.48" width="20" height="70" rx="10" transform="rotate(-118 981.31 2262.48)" fill="black"/>
<rect x="1072.49" y="2399.68" width="20" height="70" rx="10" transform="rotate(-128 1072.49 2399.68)" fill="black"/>
<rect x="1186.1" y="2518.96" width="20" height="70" rx="10" transform="rotate(-138 1186.1 2518.96)" fill="black"/>
<rect x="1318.71" y="2616.71" width="20" height="70" rx="10" transform="rotate(-148 1318.71 2616.71)" fill="black"/>
<rect x="1466.27" y="2689.94" width="20" height="70" rx="10" transform="rotate(-158 1466.27 2689.94)" fill="black"/>
<rect x="1624.31" y="2736.43" width="20" height="70" rx="10" transform="rotate(-168 1624.31 2736.43)" fill="black"/>
<rect x="1788.01" y="2754.77" width="20" height="70" rx="10" transform="rotate(-178 1788.01 2754.77)" fill="black"/>
<rect x="1952.42" y="2744.41" width="20" height="70" rx="10" transform="rotate(172 1952.42 2744.41)" fill="black"/>
<rect x="2112.53" y="2705.66" width="20" height="70" rx="10" transform="rotate(162 2112.53 2705.66)" fill="black"/>
<rect x="2263.48" y="2639.69" width="20" height="70" rx="10" transform="rotate(152 2263.48 2639.69)" fill="black"/>
<rect x="2400.68" y="2548.51" width="20" height="70" rx="10" transform="rotate(142 2400.68 2548.51)" fill="black"/>
<rect x="2519.96" y="2434.9" width="20" height="70" rx="10" transform="rotate(132 2519.96 2434.9)" fill="black"/>
<rect x="2617.7" y="2302.29" width="20" height="70" rx="10" transform="rotate(122 2617.7 2302.29)" fill="black"/>
<rect x="2690.94" y="2154.73" width="20" height="70" rx="10" transform="rotate(112 2690.94 2154.73)" fill="black"/>
<rect x="2737.43" y="1996.7" width="20" height="70" rx="10" transform="rotate(102 2737.43 1996.7)" fill="black"/>
<rect x="2755.77" y="1832.98" width="20" height="70" rx="10" transform="rotate(92 2755.77 1832.98)" fill="black"/>
<rect x="2745.41" y="1668.58" width="20" height="70" rx="10" transform="rotate(82 2745.41 1668.58)" fill="black"/>
<rect x="2706.66" y="1508.47" width="20" height="70" rx="10" transform="rotate(72 2706.66 1508.47)" fill="black"/>
<rect x="2640.69" y="1357.52" width="20" height="70" rx="10" transform="rotate(62 2640.69 1357.52)" fill="black"/>
<rect x="2549.51" y="1220.32" width="20" height="70" rx="10" transform="rotate(52 2549.51 1220.32)" fill="black"/>
<rect x="2435.9" y="1101.04" width="20" height="70" rx="10" transform="rotate(42 2435.9 1101.04)" fill="black"/>
<rect x="2303.29" y="1003.3" width="20" height="70" rx="10" transform="rotate(32 2303.29 1003.3)" fill="black"/>
<rect x="2155.73" y="930.066" width="20" height="70" rx="10" transform="rotate(22 2155.73 930.066)" fill="black"/>
<rect x="1997.69" y="883.572" width="20" height="70" rx="10" transform="rotate(12 1997.69 883.572)" fill="black"/>
<rect x="1833.99" y="865.227" width="20" height="70" rx="10" transform="rotate(2 1833.99 865.227)" fill="black"/>
<rect x="1669.58" y="875.59" width="20" height="70" rx="10" transform="rotate(-8 1669.58 875.59)" fill="black"/>
<rect x="1509.47" y="914.342" width="20" height="70" rx="10" transform="rotate(-18 1509.47 914.342)" fill="black"/>
<rect x="1263.14" y="864.742" width="20" height="65" rx="10" transform="rotate(-29.5714 1263.14 864.742)" fill="black"/>
<rect x="1128.38" y="956.953" width="20" height="65" rx="10" transform="rotate(-38.1429 1128.38 956.953)" fill="black"/>
<rect x="1008.86" y="1068.22" width="20" height="65" rx="10" transform="rotate(-46.7143 1008.86 1068.22)" fill="black"/>
<rect x="907.262" y="1196.06" width="20" height="65" rx="10" transform="rotate(-55.2857 907.262 1196.06)" fill="black"/>
<rect x="825.853" y="1337.61" width="20" height="65" rx="10" transform="rotate(-63.8571 825.853 1337.61)" fill="black"/>
<rect x="766.449" y="1489.71" width="20" height="65" rx="10" transform="rotate(-72.4286 766.449 1489.71)" fill="black"/>
<rect x="730.381" y="1648.97" width="20" height="65" rx="10" transform="rotate(-81 730.381 1648.97)" fill="black"/>
<rect x="718.45" y="1811.83" width="20" height="65" rx="10" transform="rotate(-89.5714 718.45 1811.83)" fill="black"/>
<rect x="730.926" y="1974.64" width="20" height="65" rx="10" transform="rotate(-98.1429 730.926 1974.64)" fill="black"/>
<rect x="767.527" y="2133.78" width="20" height="65" rx="10" transform="rotate(-106.714 767.527 2133.78)" fill="black"/>
<rect x="827.439" y="2285.68" width="20" height="65" rx="10" transform="rotate(-115.286 827.439 2285.68)" fill="black"/>
<rect x="909.321" y="2426.96" width="20" height="65" rx="10" transform="rotate(-123.857 909.321 2426.96)" fill="black"/>
<rect x="1011.35" y="2554.46" width="20" height="65" rx="10" transform="rotate(-132.429 1011.35 2554.46)" fill="black"/>
<rect x="1131.23" y="2665.32" width="20" height="65" rx="10" transform="rotate(-141 1131.23 2665.32)" fill="black"/>
<rect x="1266.31" y="2757.08" width="20" height="65" rx="10" transform="rotate(-149.571 1266.31 2757.08)" fill="black"/>
<rect x="1413.54" y="2827.69" width="20" height="65" rx="10" transform="rotate(-158.143 1413.54 2827.69)" fill="black"/>
<rect x="1569.66" y="2875.56" width="20" height="65" rx="10" transform="rotate(-166.714 1569.66 2875.56)" fill="black"/>
<rect x="1731.17" y="2899.62" width="20" height="65" rx="10" transform="rotate(-175.286 1731.17 2899.62)" fill="black"/>
<rect x="1894.46" y="2899.35" width="20" height="65" rx="10" transform="rotate(176.143 1894.46 2899.35)" fill="black"/>
<rect x="2055.89" y="2874.74" width="20" height="65" rx="10" transform="rotate(167.571 2055.89 2874.74)" fill="black"/>
<rect x="2211.85" y="2826.35" width="20" height="65" rx="10" transform="rotate(159 2211.85 2826.35)" fill="black"/>
<rect x="2358.85" y="2755.26" width="20" height="65" rx="10" transform="rotate(150.429 2358.85 2755.26)" fill="black"/>
<rect x="2493.61" y="2663.04" width="20" height="65" rx="10" transform="rotate(141.857 2493.61 2663.04)" fill="black"/>
<rect x="2613.13" y="2551.78" width="20" height="65" rx="10" transform="rotate(133.286 2613.13 2551.78)" fill="black"/>
<rect x="2714.73" y="2423.94" width="20" height="65" rx="10" transform="rotate(124.714 2714.73 2423.94)" fill="black"/>
<rect x="2796.14" y="2282.39" width="20" height="65" rx="10" transform="rotate(116.143 2796.14 2282.39)" fill="black"/>
<rect x="2855.54" y="2130.29" width="20" height="65" rx="10" transform="rotate(107.571 2855.54 2130.29)" fill="black"/>
<rect x="2891.61" y="1971.03" width="20" height="65" rx="10" transform="rotate(99 2891.61 1971.03)" fill="black"/>
<rect x="2903.54" y="1808.17" width="20" height="65" rx="10" transform="rotate(90.4286 2903.54 1808.17)" fill="black"/>
<rect x="2891.06" y="1645.36" width="20" height="65" rx="10" transform="rotate(81.8571 2891.06 1645.36)" fill="black"/>
<rect x="2854.46" y="1486.22" width="20" height="65" rx="10" transform="rotate(73.2857 2854.46 1486.22)" fill="black"/>
<rect x="2794.55" y="1334.32" width="20" height="65" rx="10" transform="rotate(64.7143 2794.55 1334.32)" fill="black"/>
<rect x="2712.67" y="1193.04" width="20" height="65" rx="10" transform="rotate(56.1429 2712.67 1193.04)" fill="black"/>
<rect x="2610.64" y="1065.54" width="20" height="65" rx="10" transform="rotate(47.5714 2610.64 1065.54)" fill="black"/>
<rect x="2490.75" y="954.676" width="20" height="65" rx="10" transform="rotate(39 2490.75 954.676)" fill="black"/>
<rect x="2355.68" y="862.914" width="20" height="65" rx="10" transform="rotate(30.4286 2355.68 862.914)" fill="black"/>
<rect x="2208.44" y="792.311" width="20" height="65" rx="10" transform="rotate(21.8571 2208.44 792.311)" fill="black"/>
<rect x="2052.33" y="744.441" width="20" height="65" rx="10" transform="rotate(13.2857 2052.33 744.441)" fill="black"/>
<rect x="1890.82" y="720.373" width="20" height="65" rx="10" transform="rotate(4.71428 1890.82 720.373)" fill="black"/>
<rect x="1727.53" y="720.646" width="20" height="65" rx="10" transform="rotate(-3.85714 1727.53 720.646)" fill="black"/>
<rect x="1566.1" y="745.254" width="20" height="65" rx="10" transform="rotate(-12.4286 1566.1 745.254)" fill="black"/>
<rect x="1410.14" y="793.646" width="20" height="65" rx="10" transform="rotate(-21 1410.14 793.646)" fill="black"/>
<rect x="1154.58" y="757.951" width="20" height="60" rx="10" transform="rotate(-31.5 1154.58 757.951)" fill="black"/>
<rect x="1022.87" y="852.633" width="20" height="60" rx="10" transform="rotate(-39 1022.87 852.633)" fill="black"/>
<rect x="904.652" y="963.695" width="20" height="60" rx="10" transform="rotate(-46.5 904.652 963.695)" fill="black"/>
<rect x="801.94" y="1089.24" width="20" height="60" rx="10" transform="rotate(-54 801.94 1089.24)" fill="black"/>
<rect x="716.495" y="1227.11" width="20" height="60" rx="10" transform="rotate(-61.5 716.495 1227.11)" fill="black"/>
<rect x="649.776" y="1374.96" width="20" height="60" rx="10" transform="rotate(-69 649.776 1374.96)" fill="black"/>
<rect x="602.927" y="1530.25" width="20" height="60" rx="10" transform="rotate(-76.5 602.927 1530.25)" fill="black"/>
<rect x="576.747" y="1690.33" width="20" height="60" rx="10" transform="rotate(-84 576.747 1690.33)" fill="black"/>
<rect x="571.687" y="1852.46" width="20" height="60" rx="10" transform="rotate(-91.5 571.687 1852.46)" fill="black"/>
<rect x="587.83" y="2013.86" width="20" height="60" rx="10" transform="rotate(-99 587.83 2013.86)" fill="black"/>
<rect x="624.903" y="2171.77" width="20" height="60" rx="10" transform="rotate(-106.5 624.903 2171.77)" fill="black"/>
<rect x="682.271" y="2323.49" width="20" height="60" rx="10" transform="rotate(-114 682.271 2323.49)" fill="black"/>
<rect x="758.951" y="2466.43" width="20" height="60" rx="10" transform="rotate(-121.5 758.951 2466.43)" fill="black"/>
<rect x="853.632" y="2598.13" width="20" height="60" rx="10" transform="rotate(-129 853.632 2598.13)" fill="black"/>
<rect x="964.693" y="2716.35" width="20" height="60" rx="10" transform="rotate(-136.5 964.693 2716.35)" fill="black"/>
<rect x="1090.24" y="2819.06" width="20" height="60" rx="10" transform="rotate(-144 1090.24 2819.06)" fill="black"/>
<rect x="1228.11" y="2904.51" width="20" height="60" rx="10" transform="rotate(-151.5 1228.11 2904.51)" fill="black"/>
<rect x="1375.96" y="2971.22" width="20" height="60" rx="10" transform="rotate(-159 1375.96 2971.22)" fill="black"/>
<rect x="1531.25" y="3018.07" width="20" height="60" rx="10" transform="rotate(-166.5 1531.25 3018.07)" fill="black"/>
<rect x="1691.33" y="3044.25" width="20" height="60" rx="10" transform="rotate(-174 1691.33 3044.25)" fill="black"/>
<rect x="1853.46" y="3049.31" width="20" height="60" rx="10" transform="rotate(178.5 1853.46 3049.31)" fill="black"/>
<rect x="2014.86" y="3033.17" width="20" height="60" rx="10" transform="rotate(171 2014.86 3033.17)" fill="black"/>
<rect x="2172.77" y="2996.1" width="20" height="60" rx="10" transform="rotate(163.5 2172.77 2996.1)" fill="black"/>
<rect x="2324.49" y="2938.73" width="20" height="60" rx="10" transform="rotate(156 2324.49 2938.73)" fill="black"/>
<rect x="2467.42" y="2862.05" width="20" height="60" rx="10" transform="rotate(148.5 2467.42 2862.05)" fill="black"/>
<rect x="2599.13" y="2767.37" width="20" height="60" rx="10" transform="rotate(141 2599.13 2767.37)" fill="black"/>
<rect x="2717.35" y="2656.31" width="20" height="60" rx="10" transform="rotate(133.5 2717.35 2656.31)" fill="black"/>
<rect x="2820.06" y="2530.77" width="20" height="60" rx="10" transform="rotate(126 2820.06 2530.77)" fill="black"/>
<rect x="2905.5" y="2392.89" width="20" height="60" rx="10" transform="rotate(118.5 2905.5 2392.89)" fill="black"/>
<rect x="2972.22" y="2245.04" width="20" height="60" rx="10" transform="rotate(111 2972.22 2245.04)" fill="black"/>
<rect x="3019.07" y="2089.75" width="20" height="60" rx="10" transform="rotate(103.5 3019.07 2089.75)" fill="black"/>
<rect x="3045.25" y="1929.67" width="20" height="60" rx="10" transform="rotate(96 3045.25 1929.67)" fill="black"/>
<rect x="3050.31" y="1767.54" width="20" height="60" rx="10" transform="rotate(88.5 3050.31 1767.54)" fill="black"/>
<rect x="3034.17" y="1606.15" width="20" height="60" rx="10" transform="rotate(81 3034.17 1606.15)" fill="black"/>
<rect x="2997.1" y="1448.23" width="20" height="60" rx="10" transform="rotate(73.5 2997.1 1448.23)" fill="black"/>
<rect x="2939.73" y="1296.51" width="20" height="60" rx="10" transform="rotate(66 2939.73 1296.51)" fill="black"/>
<rect x="2863.05" y="1153.58" width="20" height="60" rx="10" transform="rotate(58.5 2863.05 1153.58)" fill="black"/>
<rect x="2768.37" y="1021.87" width="20" height="60" rx="10" transform="rotate(51 2768.37 1021.87)" fill="black"/>
<rect x="2657.31" y="903.652" width="20" height="60" rx="10" transform="rotate(43.5 2657.31 903.652)" fill="black"/>
<rect x="2531.76" y="800.941" width="20" height="60" rx="10" transform="rotate(36 2531.76 800.941)" fill="black"/>
<rect x="2393.89" y="715.496" width="20" height="60" rx="10" transform="rotate(28.5 2393.89 715.496)" fill="black"/>
<rect x="2246.04" y="648.777" width="20" height="60" rx="10" transform="rotate(21 2246.04 648.777)" fill="black"/>
<rect x="2090.75" y="601.928" width="20" height="60" rx="10" transform="rotate(13.5 2090.75 601.928)" fill="black"/>
<rect x="1930.67" y="575.75" width="20" height="60" rx="10" transform="rotate(6 1930.67 575.75)" fill="black"/>
<rect x="1768.54" y="570.688" width="20" height="60" rx="10" transform="rotate(-1.5 1768.54 570.688)" fill="black"/>
<rect x="1607.14" y="586.832" width="20" height="60" rx="10" transform="rotate(-9 1607.14 586.832)" fill="black"/>
<rect x="1449.23" y="623.904" width="20" height="60" rx="10" transform="rotate(-16.5 1449.23 623.904)" fill="black"/>
<rect x="1297.51" y="681.273" width="20" height="60" rx="10" transform="rotate(-24 1297.51 681.273)" fill="black"/>
<rect x="1033.5" y="660.762" width="20" height="55" rx="10" transform="rotate(-33.6667 1033.5 660.762)" fill="black"/>
<rect x="905.342" y="758.793" width="20" height="55" rx="10" transform="rotate(-40.3333 905.342 758.793)" fill="black"/>
<rect x="789.427" y="871.041" width="20" height="55" rx="10" transform="rotate(-47 789.427 871.041)" fill="black"/>
<rect x="687.328" y="995.988" width="20" height="55" rx="10" transform="rotate(-53.6667 687.328 995.988)" fill="black"/>
<rect x="600.425" y="1131.94" width="20" height="55" rx="10" transform="rotate(-60.3333 600.425 1131.94)" fill="black"/>
<rect x="529.893" y="1277.07" width="20" height="55" rx="10" transform="rotate(-67 529.893 1277.07)" fill="black"/>
<rect x="476.685" y="1429.4" width="20" height="55" rx="10" transform="rotate(-73.6667 476.685 1429.4)" fill="black"/>
<rect x="441.522" y="1586.88" width="20" height="55" rx="10" transform="rotate(-80.3333 441.522 1586.88)" fill="black"/>
<rect x="424.879" y="1747.37" width="20" height="55" rx="10" transform="rotate(-87 424.879 1747.37)" fill="black"/>
<rect x="426.979" y="1908.71" width="20" height="55" rx="10" transform="rotate(-93.6667 426.979 1908.71)" fill="black"/>
<rect x="447.798" y="2068.72" width="20" height="55" rx="10" transform="rotate(-100.333 447.798 2068.72)" fill="black"/>
<rect x="487.052" y="2225.23" width="20" height="55" rx="10" transform="rotate(-107 487.052 2225.23)" fill="black"/>
<rect x="544.208" y="2376.12" width="20" height="55" rx="10" transform="rotate(-113.667 544.208 2376.12)" fill="black"/>
<rect x="618.497" y="2519.36" width="20" height="55" rx="10" transform="rotate(-120.333 618.497 2519.36)" fill="black"/>
<rect x="708.912" y="2653.01" width="20" height="55" rx="10" transform="rotate(-127 708.912 2653.01)" fill="black"/>
<rect x="814.23" y="2775.25" width="20" height="55" rx="10" transform="rotate(-133.667 814.23 2775.25)" fill="black"/>
<rect x="933.029" y="2884.44" width="20" height="55" rx="10" transform="rotate(-140.333 933.029 2884.44)" fill="black"/>
<rect x="1063.7" y="2979.1" width="20" height="55" rx="10" transform="rotate(-147 1063.7 2979.1)" fill="black"/>
<rect x="1204.48" y="3057.96" width="20" height="55" rx="10" transform="rotate(-153.667 1204.48 3057.96)" fill="black"/>
<rect x="1353.46" y="3119.93" width="20" height="55" rx="10" transform="rotate(-160.333 1353.46 3119.93)" fill="black"/>
<rect x="1508.62" y="3164.19" width="20" height="55" rx="10" transform="rotate(-167 1508.62 3164.19)" fill="black"/>
<rect x="1667.88" y="3190.13" width="20" height="55" rx="10" transform="rotate(-173.667 1667.88 3190.13)" fill="black"/>
<rect x="1829.07" y="3197.42" width="20" height="55" rx="10" transform="rotate(179.667 1829.07 3197.42)" fill="black"/>
<rect x="1990.02" y="3185.94" width="20" height="55" rx="10" transform="rotate(173 1990.02 3185.94)" fill="black"/>
<rect x="2148.55" y="3155.85" width="20" height="55" rx="10" transform="rotate(166.333 2148.55 3155.85)" fill="black"/>
<rect x="2302.51" y="3107.57" width="20" height="55" rx="10" transform="rotate(159.667 2302.51 3107.57)" fill="black"/>
<rect x="2449.82" y="3041.73" width="20" height="55" rx="10" transform="rotate(153 2449.82 3041.73)" fill="black"/>
<rect x="2588.5" y="2959.24" width="20" height="55" rx="10" transform="rotate(146.333 2588.5 2959.24)" fill="black"/>
<rect x="2716.66" y="2861.21" width="20" height="55" rx="10" transform="rotate(139.667 2716.66 2861.21)" fill="black"/>
<rect x="2832.57" y="2748.96" width="20" height="55" rx="10" transform="rotate(133 2832.57 2748.96)" fill="black"/>
<rect x="2934.67" y="2624.01" width="20" height="55" rx="10" transform="rotate(126.333 2934.67 2624.01)" fill="black"/>
<rect x="3021.58" y="2488.06" width="20" height="55" rx="10" transform="rotate(119.667 3021.58 2488.06)" fill="black"/>
<rect x="3092.11" y="2342.94" width="20" height="55" rx="10" transform="rotate(113 3092.11 2342.94)" fill="black"/>
<rect x="3145.32" y="2190.6" width="20" height="55" rx="10" transform="rotate(106.333 3145.32 2190.6)" fill="black"/>
<rect x="3180.48" y="2033.13" width="20" height="55" rx="10" transform="rotate(99.6667 3180.48 2033.13)" fill="black"/>
<rect x="3197.12" y="1872.63" width="20" height="55" rx="10" transform="rotate(93 3197.12 1872.63)" fill="black"/>
<rect x="3195.02" y="1711.29" width="20" height="55" rx="10" transform="rotate(86.3333 3195.02 1711.29)" fill="black"/>
<rect x="3174.2" y="1551.28" width="20" height="55" rx="10" transform="rotate(79.6667 3174.2 1551.28)" fill="black"/>
<rect x="3134.95" y="1394.77" width="20" height="55" rx="10" transform="rotate(73 3134.95 1394.77)" fill="black"/>
<rect x="3077.79" y="1243.88" width="20" height="55" rx="10" transform="rotate(66.3333 3077.79 1243.88)" fill="black"/>
<rect x="3003.5" y="1100.64" width="20" height="55" rx="10" transform="rotate(59.6667 3003.5 1100.64)" fill="black"/>
<rect x="2913.09" y="966.996" width="20" height="55" rx="10" transform="rotate(53 2913.09 966.996)" fill="black"/>
<rect x="2807.77" y="844.752" width="20" height="55" rx="10" transform="rotate(46.3333 2807.77 844.752)" fill="black"/>
<rect x="2688.97" y="735.561" width="20" height="55" rx="10" transform="rotate(39.6667 2688.97 735.561)" fill="black"/>
<rect x="2558.3" y="640.9" width="20" height="55" rx="10" transform="rotate(33 2558.3 640.9)" fill="black"/>
<rect x="2417.52" y="562.047" width="20" height="55" rx="10" transform="rotate(26.3333 2417.52 562.047)" fill="black"/>
<rect x="2268.54" y="500.072" width="20" height="55" rx="10" transform="rotate(19.6667 2268.54 500.072)" fill="black"/>
<rect x="2113.38" y="455.812" width="20" height="55" rx="10" transform="rotate(13 2113.38 455.812)" fill="black"/>
<rect x="1954.12" y="429.865" width="20" height="55" rx="10" transform="rotate(6.33333 1954.12 429.865)" fill="black"/>
<rect x="1792.93" y="422.584" width="20" height="55" rx="10" transform="rotate(-0.333334 1792.93 422.584)" fill="black"/>
<rect x="1631.98" y="434.061" width="20" height="55" rx="10" transform="rotate(-7 1631.98 434.061)" fill="black"/>
<rect x="1473.46" y="464.148" width="20" height="55" rx="10" transform="rotate(-13.6667 1473.46 464.148)" fill="black"/>
<rect x="1319.49" y="512.436" width="20" height="55" rx="10" transform="rotate(-20.3333 1319.49 512.436)" fill="black"/>
<rect x="1172.18" y="578.27" width="20" height="55" rx="10" transform="rotate(-27 1172.18 578.27)" fill="black"/>
<rect x="900.661" y="574.037" width="20" height="50" rx="10" transform="rotate(-36 900.661 574.037)" fill="black"/>
<rect x="776.455" y="675.963" width="20" height="50" rx="10" transform="rotate(-42 776.455 675.963)" fill="black"/>
<rect x="663.583" y="790.314" width="20" height="50" rx="10" transform="rotate(-48 663.583 790.314)" fill="black"/>
<rect x="563.283" y="915.84" width="20" height="50" rx="10" transform="rotate(-54 563.283 915.84)" fill="black"/>
<rect x="476.652" y="1051.16" width="20" height="50" rx="10" transform="rotate(-60 476.652 1051.16)" fill="black"/>
<rect x="404.643" y="1194.79" width="20" height="50" rx="10" transform="rotate(-66 404.643 1194.79)" fill="black"/>
<rect x="348.039" y="1345.17" width="20" height="50" rx="10" transform="rotate(-72 348.039 1345.17)" fill="black"/>
<rect x="307.466" y="1500.64" width="20" height="50" rx="10" transform="rotate(-78 307.466 1500.64)" fill="black"/>
<rect x="283.365" y="1659.49" width="20" height="50" rx="10" transform="rotate(-84 283.365 1659.49)" fill="black"/>
<rect x="276.002" y="1820" width="20" height="50" rx="10" transform="rotate(-90 276.002 1820)" fill="black"/>
<rect x="285.455" y="1980.39" width="20" height="50" rx="10" transform="rotate(-96 285.455 1980.39)" fill="black"/>
<rect x="311.624" y="2138.92" width="20" height="50" rx="10" transform="rotate(-102 311.624 2138.92)" fill="black"/>
<rect x="354.221" y="2293.85" width="20" height="50" rx="10" transform="rotate(-108 354.221 2293.85)" fill="black"/>
<rect x="412.776" y="2443.47" width="20" height="50" rx="10" transform="rotate(-114 412.776 2443.47)" fill="black"/>
<rect x="486.652" y="2586.16" width="20" height="50" rx="10" transform="rotate(-120 486.652 2586.16)" fill="black"/>
<rect x="575.038" y="2720.34" width="20" height="50" rx="10" transform="rotate(-126 575.038 2720.34)" fill="black"/>
<rect x="676.966" y="2844.55" width="20" height="50" rx="10" transform="rotate(-132 676.966 2844.55)" fill="black"/>
<rect x="791.318" y="2957.42" width="20" height="50" rx="10" transform="rotate(-138 791.318 2957.42)" fill="black"/>
<rect x="916.841" y="3057.72" width="20" height="50" rx="10" transform="rotate(-144 916.841 3057.72)" fill="black"/>
<rect x="1052.16" y="3144.35" width="20" height="50" rx="10" transform="rotate(-150 1052.16 3144.35)" fill="black"/>
<rect x="1195.8" y="3216.36" width="20" height="50" rx="10" transform="rotate(-156 1195.8 3216.36)" fill="black"/>
<rect x="1346.17" y="3272.96" width="20" height="50" rx="10" transform="rotate(-162 1346.17 3272.96)" fill="black"/>
<rect x="1501.64" y="3313.54" width="20" height="50" rx="10" transform="rotate(-168 1501.64 3313.54)" fill="black"/>
<rect x="1660.5" y="3337.63" width="20" height="50" rx="10" transform="rotate(-174 1660.5 3337.63)" fill="black"/>
<rect x="1821" y="3345" width="20" height="50" rx="10" transform="rotate(180 1821 3345)" fill="black"/>
<rect x="1981.4" y="3335.54" width="20" height="50" rx="10" transform="rotate(174 1981.4 3335.54)" fill="black"/>
<rect x="2139.93" y="3309.38" width="20" height="50" rx="10" transform="rotate(168 2139.93 3309.38)" fill="black"/>
<rect x="2294.85" y="3266.78" width="20" height="50" rx="10" transform="rotate(162 2294.85 3266.78)" fill="black"/>
<rect x="2444.48" y="3208.22" width="20" height="50" rx="10" transform="rotate(156 2444.48 3208.22)" fill="black"/>
<rect x="2587.16" y="3134.35" width="20" height="50" rx="10" transform="rotate(150 2587.16 3134.35)" fill="black"/>
<rect x="2721.34" y="3045.96" width="20" height="50" rx="10" transform="rotate(144 2721.34 3045.96)" fill="black"/>
<rect x="2845.55" y="2944.04" width="20" height="50" rx="10" transform="rotate(138 2845.55 2944.04)" fill="black"/>
<rect x="2958.42" y="2829.68" width="20" height="50" rx="10" transform="rotate(132 2958.42 2829.68)" fill="black"/>
<rect x="3058.72" y="2704.16" width="20" height="50" rx="10" transform="rotate(126 3058.72 2704.16)" fill="black"/>
<rect x="3145.35" y="2568.84" width="20" height="50" rx="10" transform="rotate(120 3145.35 2568.84)" fill="black"/>
<rect x="3217.36" y="2425.21" width="20" height="50" rx="10" transform="rotate(114 3217.36 2425.21)" fill="black"/>
<rect x="3273.96" y="2274.83" width="20" height="50" rx="10" transform="rotate(108 3273.96 2274.83)" fill="black"/>
<rect x="3314.54" y="2119.36" width="20" height="50" rx="10" transform="rotate(102 3314.54 2119.36)" fill="black"/>
<rect x="3338.64" y="1960.51" width="20" height="50" rx="10" transform="rotate(96 3338.64 1960.51)" fill="black"/>
<rect x="3346" y="1800" width="20" height="50" rx="10" transform="rotate(90 3346 1800)" fill="black"/>
<rect x="3336.55" y="1639.6" width="20" height="50" rx="10" transform="rotate(84 3336.55 1639.6)" fill="black"/>
<rect x="3310.38" y="1481.07" width="20" height="50" rx="10" transform="rotate(78 3310.38 1481.07)" fill="black"/>
<rect x="3267.78" y="1326.15" width="20" height="50" rx="10" transform="rotate(72 3267.78 1326.15)" fill="black"/>
<rect x="3209.23" y="1176.52" width="20" height="50" rx="10" transform="rotate(66 3209.23 1176.52)" fill="black"/>
<rect x="3135.35" y="1033.84" width="20" height="50" rx="10" transform="rotate(60 3135.35 1033.84)" fill="black"/>
<rect x="3046.96" y="899.658" width="20" height="50" rx="10" transform="rotate(54 3046.96 899.658)" fill="black"/>
<rect x="2945.04" y="775.451" width="20" height="50" rx="10" transform="rotate(48 2945.04 775.451)" fill="black"/>
<rect x="2830.69" y="662.58" width="20" height="50" rx="10" transform="rotate(42 2830.69 662.58)" fill="black"/>
<rect x="2705.16" y="562.279" width="20" height="50" rx="10" transform="rotate(36 2705.16 562.279)" fill="black"/>
<rect x="2569.84" y="475.65" width="20" height="50" rx="10" transform="rotate(30 2569.84 475.65)" fill="black"/>
<rect x="2426.21" y="403.639" width="20" height="50" rx="10" transform="rotate(24 2426.21 403.639)" fill="black"/>
<rect x="2275.83" y="347.037" width="20" height="50" rx="10" transform="rotate(18 2275.83 347.037)" fill="black"/>
<rect x="2120.36" y="306.463" width="20" height="50" rx="10" transform="rotate(12 2120.36 306.463)" fill="black"/>
<rect x="1961.51" y="282.363" width="20" height="50" rx="10" transform="rotate(6 1961.51 282.363)" fill="black"/>
<rect x="1801" y="275" width="20" height="50" rx="10" fill="black"/>
<rect x="1640.61" y="284.453" width="20" height="50" rx="10" transform="rotate(-6 1640.61 284.453)" fill="black"/>
<rect x="1482.08" y="310.621" width="20" height="50" rx="10" transform="rotate(-12 1482.08 310.621)" fill="black"/>
<rect x="1327.15" y="353.219" width="20" height="50" rx="10" transform="rotate(-18 1327.15 353.219)" fill="black"/>
<rect x="1177.53" y="411.773" width="20" height="50" rx="10" transform="rotate(-24 1177.53 411.773)" fill="black"/>
<rect x="1034.84" y="485.65" width="20" height="50" rx="10" transform="rotate(-30 1034.84 485.65)" fill="black"/>
<rect x="756.832" y="498.65" width="20" height="45" rx="10" transform="rotate(-38.4545 756.832 498.65)" fill="black"/>
<rect x="636.954" y="604.795" width="20" height="45" rx="10" transform="rotate(-43.9091 636.954 604.795)" fill="black"/>
<rect x="527.708" y="721.85" width="20" height="45" rx="10" transform="rotate(-49.3636 527.708 721.85)" fill="black"/>
<rect x="430.083" y="848.764" width="20" height="45" rx="10" transform="rotate(-54.8182 430.083 848.764)" fill="black"/>
<rect x="344.965" y="984.379" width="20" height="45" rx="10" transform="rotate(-60.2727 344.965 984.379)" fill="black"/>
<rect x="273.122" y="1127.47" width="20" height="45" rx="10" transform="rotate(-65.7273 273.122 1127.47)" fill="black"/>
<rect x="215.208" y="1276.75" width="20" height="45" rx="10" transform="rotate(-71.1818 215.208 1276.75)" fill="black"/>
<rect x="171.746" y="1430.85" width="20" height="45" rx="10" transform="rotate(-76.6364 171.746 1430.85)" fill="black"/>
<rect x="143.128" y="1588.39" width="20" height="45" rx="10" transform="rotate(-82.0909 143.128 1588.39)" fill="black"/>
<rect x="129.614" y="1747.94" width="20" height="45" rx="10" transform="rotate(-87.5455 129.614 1747.94)" fill="black"/>
<rect x="131.329" y="1908.04" width="20" height="45" rx="10" transform="rotate(-93 131.329 1908.04)" fill="black"/>
<rect x="148.254" y="2067.26" width="20" height="45" rx="10" transform="rotate(-98.4545 148.254 2067.26)" fill="black"/>
<rect x="180.236" y="2224.15" width="20" height="45" rx="10" transform="rotate(-103.909 180.236 2224.15)" fill="black"/>
<rect x="226.988" y="2377.29" width="20" height="45" rx="10" transform="rotate(-109.364 226.988 2377.29)" fill="black"/>
<rect x="288.085" y="2525.29" width="20" height="45" rx="10" transform="rotate(-114.818 288.085 2525.29)" fill="black"/>
<rect x="362.973" y="2666.81" width="20" height="45" rx="10" transform="rotate(-120.273 362.973 2666.81)" fill="black"/>
<rect x="450.976" y="2800.58" width="20" height="45" rx="10" transform="rotate(-125.727 450.976 2800.58)" fill="black"/>
<rect x="551.294" y="2925.37" width="20" height="45" rx="10" transform="rotate(-131.182 551.294 2925.37)" fill="black"/>
<rect x="663.021" y="3040.06" width="20" height="45" rx="10" transform="rotate(-136.636 663.021 3040.06)" fill="black"/>
<rect x="785.144" y="3143.62" width="20" height="45" rx="10" transform="rotate(-142.091 785.144 3143.62)" fill="black"/>
<rect x="916.557" y="3235.09" width="20" height="45" rx="10" transform="rotate(-147.545 916.557 3235.09)" fill="black"/>
<rect x="1056.07" y="3313.66" width="20" height="45" rx="10" transform="rotate(-153 1056.07 3313.66)" fill="black"/>
<rect x="1202.42" y="3378.61" width="20" height="45" rx="10" transform="rotate(-158.455 1202.42 3378.61)" fill="black"/>
<rect x="1354.28" y="3429.36" width="20" height="45" rx="10" transform="rotate(-163.909 1354.28 3429.36)" fill="black"/>
<rect x="1510.28" y="3465.44" width="20" height="45" rx="10" transform="rotate(-169.364 1510.28 3465.44)" fill="black"/>
<rect x="1669" y="3486.53" width="20" height="45" rx="10" transform="rotate(-174.818 1669 3486.53)" fill="black"/>
<rect x="1829.01" y="3492.43" width="20" height="45" rx="10" transform="rotate(179.727 1829.01 3492.43)" fill="black"/>
<rect x="1988.85" y="3483.1" width="20" height="45" rx="10" transform="rotate(174.273 1988.85 3483.1)" fill="black"/>
<rect x="2147.08" y="3458.62" width="20" height="45" rx="10" transform="rotate(168.818 2147.08 3458.62)" fill="black"/>
<rect x="2302.27" y="3419.21" width="20" height="45" rx="10" transform="rotate(163.364 2302.27 3419.21)" fill="black"/>
<rect x="2453.02" y="3365.22" width="20" height="45" rx="10" transform="rotate(157.909 2453.02 3365.22)" fill="black"/>
<rect x="2597.94" y="3297.15" width="20" height="45" rx="10" transform="rotate(152.455 2597.94 3297.15)" fill="black"/>
<rect x="2735.74" y="3215.62" width="20" height="45" rx="10" transform="rotate(147 2735.74 3215.62)" fill="black"/>
<rect x="2865.17" y="3121.35" width="20" height="45" rx="10" transform="rotate(141.545 2865.17 3121.35)" fill="black"/>
<rect x="2985.04" y="3015.21" width="20" height="45" rx="10" transform="rotate(136.091 2985.04 3015.21)" fill="black"/>
<rect x="3094.29" y="2898.15" width="20" height="45" rx="10" transform="rotate(130.636 3094.29 2898.15)" fill="black"/>
<rect x="3191.92" y="2771.24" width="20" height="45" rx="10" transform="rotate(125.182 3191.92 2771.24)" fill="black"/>
<rect x="3277.03" y="2635.62" width="20" height="45" rx="10" transform="rotate(119.727 3277.03 2635.62)" fill="black"/>
<rect x="3348.88" y="2492.53" width="20" height="45" rx="10" transform="rotate(114.273 3348.88 2492.53)" fill="black"/>
<rect x="3406.79" y="2343.25" width="20" height="45" rx="10" transform="rotate(108.818 3406.79 2343.25)" fill="black"/>
<rect x="3450.25" y="2189.15" width="20" height="45" rx="10" transform="rotate(103.364 3450.25 2189.15)" fill="black"/>
<rect x="3478.87" y="2031.61" width="20" height="45" rx="10" transform="rotate(97.9091 3478.87 2031.61)" fill="black"/>
<rect x="3492.38" y="1872.06" width="20" height="45" rx="10" transform="rotate(92.4545 3492.38 1872.06)" fill="black"/>
<rect x="3490.67" y="1711.96" width="20" height="45" rx="10" transform="rotate(87 3490.67 1711.96)" fill="black"/>
<rect x="3473.74" y="1552.74" width="20" height="45" rx="10" transform="rotate(81.5455 3473.74 1552.74)" fill="black"/>
<rect x="3441.76" y="1395.85" width="20" height="45" rx="10" transform="rotate(76.0909 3441.76 1395.85)" fill="black"/>
<rect x="3395.01" y="1242.71" width="20" height="45" rx="10" transform="rotate(70.6364 3395.01 1242.71)" fill="black"/>
<rect x="3333.91" y="1094.71" width="20" height="45" rx="10" transform="rotate(65.1818 3333.91 1094.71)" fill="black"/>
<rect x="3259.02" y="953.188" width="20" height="45" rx="10" transform="rotate(59.7273 3259.02 953.188)" fill="black"/>
<rect x="3171.02" y="819.422" width="20" height="45" rx="10" transform="rotate(54.2727 3171.02 819.422)" fill="black"/>
<rect x="3070.7" y="694.631" width="20" height="45" rx="10" transform="rotate(48.8182 3070.7 694.631)" fill="black"/>
<rect x="2958.98" y="579.938" width="20" height="45" rx="10" transform="rotate(43.3636 2958.98 579.938)" fill="black"/>
<rect x="2836.85" y="476.387" width="20" height="45" rx="10" transform="rotate(37.9091 2836.85 476.387)" fill="black"/>
<rect x="2705.44" y="384.91" width="20" height="45" rx="10" transform="rotate(32.4545 2705.44 384.91)" fill="black"/>
<rect x="2565.93" y="306.342" width="20" height="45" rx="10" transform="rotate(27 2565.93 306.342)" fill="black"/>
<rect x="2419.58" y="241.391" width="20" height="45" rx="10" transform="rotate(21.5455 2419.58 241.391)" fill="black"/>
<rect x="2267.72" y="190.645" width="20" height="45" rx="10" transform="rotate(16.0909 2267.72 190.645)" fill="black"/>
<rect x="2111.72" y="154.562" width="20" height="45" rx="10" transform="rotate(10.6364 2111.72 154.562)" fill="black"/>
<rect x="1953" y="133.473" width="20" height="45" rx="10" transform="rotate(5.18182 1953 133.473)" fill="black"/>
<rect x="1792.99" y="127.566" width="20" height="45" rx="10" transform="rotate(-0.272725 1792.99 127.566)" fill="black"/>
<rect x="1633.15" y="136.896" width="20" height="45" rx="10" transform="rotate(-5.72727 1633.15 136.896)" fill="black"/>
<rect x="1474.91" y="161.379" width="20" height="45" rx="10" transform="rotate(-11.1818 1474.91 161.379)" fill="black"/>
<rect x="1319.72" y="200.791" width="20" height="45" rx="10" transform="rotate(-16.6364 1319.72 200.791)" fill="black"/>
<rect x="1168.98" y="254.775" width="20" height="45" rx="10" transform="rotate(-22.0909 1168.98 254.775)" fill="black"/>
<rect x="1024.06" y="322.846" width="20" height="45" rx="10" transform="rotate(-27.5455 1024.06 322.846)" fill="black"/>
<rect x="886.257" y="404.383" width="20" height="45" rx="10" transform="rotate(-33 886.257 404.383)" fill="black"/>
</g>
<defs>
<clipPath id="clip0_102_5720">
<rect width="3622" height="3622" fill="white"/>
</clipPath>
</defs>
</svg>
